<svg xmlns="http://www.w3.org/2000/svg" width="22.34" height="14.8" viewBox="0 0 22.34 14.8"><path d="M17.926,86.68a.373.373,0,0,0-.365.494l.753,2.187a.367.367,0,0,0,.2.217,1.816,1.816,0,1,1-1.662.1l.578,1.679a.372.372,0,1,0,.7-.242L14.9,81.745h2.782a.745.745,0,0,1,0,1.489h-.558a.372.372,0,0,0,0,.745h.558a1.489,1.489,0,0,0,0-2.979h-3.3a.373.373,0,0,0-.352.494l.479,1.39L8.139,84.367l-.916-1.775.595-.072a.483.483,0,0,0,.044-.951l-1.537-.332a.748.748,0,1,0-.176,1.48,2.335,2.335,0,0,0,.286-.029l1.133,2.2L6.392,87.062a4.561,4.561,0,1,0,2.477,5.676.372.372,0,0,0-.363-.493l-2.313.065a.368.368,0,0,0-.267.124A1.815,1.815,0,1,1,5.077,89.5l-.843,1.563a.373.373,0,0,0,.338.549c1.812-.051,6.607-.175,6.695-.2a.372.372,0,0,0,.236-.192l3.384-7.238,1.061,3.081a4.559,4.559,0,1,0,1.979-.383ZM6.165,81.97c.006-.006,0-.006.018,0Zm2.929,8.769a4.542,4.542,0,0,0-1.083-2.48.372.372,0,0,0-.609.067L6.309,90.353c-.1.178-.024.294.017.464l-1.131.032,2.786-5.164L10.568,90.7Zm2.06-.53L8.492,85.05l5.693-1.326Z" transform="translate(0 -81)" fill="#7c817b"/></svg>