<svg xmlns="http://www.w3.org/2000/svg" width="37.694" height="23" viewBox="0 0 37.694 23"><g transform="translate(-1189.306 -27)"><g transform="translate(1189.306 27)"><path d="M38.917,17.056H3.778a1.278,1.278,0,1,1,0-2.556H38.917a1.278,1.278,0,1,1,0,2.556Z" transform="translate(-2.5 -14.5)" fill="#3c3c3b"/><g transform="translate(0 10.222)"><path d="M21.028,33.056H3.778a1.278,1.278,0,0,1,0-2.556h17.25a1.278,1.278,0,0,1,0,2.556Z" transform="translate(-2.5 -30.5)" fill="#3c3c3b"/></g><g transform="translate(0 20.444)"><g transform="translate(0 0)"><path d="M21.028,49.056H3.778a1.278,1.278,0,0,1,0-2.556h17.25a1.278,1.278,0,0,1,0,2.556Z" transform="translate(-2.5 -46.5)" fill="#3c3c3b"/></g></g></g></g></svg>