<svg xmlns="http://www.w3.org/2000/svg" width="16.782" height="25.253" viewBox="0 0 16.782 25.253"><defs><style>.a{fill:#458a33;}</style></defs><g transform="translate(-83.194)"><path class="a" d="M367.126,83.589c0,.25.175-.479-2.344,8.921-.14-.541-.1.63-.1-9.652A1.332,1.332,0,0,1,367.126,83.589Z" transform="translate(-267.153 -78.071)"/><path class="a" d="M291.09,1.548v11.08c-2.964-5.133-1.657-2.871-3.1-5.362V1.548a1.548,1.548,0,1,1,3.1,0Z" transform="translate(-194.373 0)"/><path class="a" d="M160.507,37.469l-1.2-1.2a5.588,5.588,0,0,0-4.062-1.647L152.5,30.043A1.548,1.548,0,0,1,155.18,28.5C159.369,35.458,157.225,31.785,160.507,37.469Z" transform="translate(-65.58 -26.312)"/><path class="a" d="M97.145,187a9.63,9.63,0,0,1-2.817,6.8,4.822,4.822,0,0,1-3.3,1.415c-.2,0,.763,0-2.162,0a5.682,5.682,0,0,1-5.675-5.675v-7.82a.462.462,0,0,1,.462-.461.411.411,0,0,0,.122-.016,2.777,2.777,0,0,1,2.047,1.154,3.014,3.014,0,0,1,.465,1.93,6.046,6.046,0,0,0,2.064,4.548,2.2,2.2,0,0,0,3.641-1.652c0-2.083.08-2.563-.283-3.386a4.255,4.255,0,0,0-1.28-1.549c-.186-.149.044-.106-3.782-.106a3.446,3.446,0,0,0-2.577-1.712,1.545,1.545,0,0,1,.684-1.126c.67-.327-.078-.258,5-.258a4.775,4.775,0,0,1,3.4,1.408l3.352,3.352.254.439A9.722,9.722,0,0,1,97.145,187Z" transform="translate(0 -169.963)"/></g></svg>