<svg xmlns="http://www.w3.org/2000/svg" width="73.233" height="81.969" viewBox="0 0 73.233 81.969"><defs><style>.a{fill:#80be70;}.b{fill:#fff;}.c{fill:#3c3c3b;}.d{fill:#d8dcd7;}</style></defs><g transform="translate(-144 -1167)"><g transform="translate(144 1167)"><path class="a" d="M110.218,47.722c-11.575-3.478-28-14.4-28-14.4.2-.106,0-6.6,0-6.6s17.061,7.044,34.4,16.2C116.618,42.922,119.818,85.122,110.218,47.722Z" transform="translate(-45.818 -24.922)"/><path class="b" d="M80.882,170.059c-42.4-12.739-34.81-63.3-34.81-63.3,1.877-.991,3.754-1.957,5.611-2.89h0S41.933,150.916,80.882,170.059Z" transform="translate(-44.26 -89.364)"/><path class="b" d="M116.385,188.327c-33.686-10.122-27.656-50.29-27.656-50.29,1.515-.8,3.032-1.578,4.528-2.331h0S87.224,171.607,116.385,188.327Z" transform="translate(-79.764 -115.793)"/><path class="c" d="M109.816,75.5a1.276,1.276,0,0,0-1.363,1.178c-1.25,17.147-8.145,39.2-33.849,47.107-16.883-5.2-27.664-17.076-32.048-35.317a78.746,78.746,0,0,1-1.583-25.832c6.567-3.449,13.865-6.968,21.7-10.465a1.274,1.274,0,1,0-1.038-2.326c-8.123,3.624-15.673,7.274-22.44,10.847a1.273,1.273,0,0,0-.665.937,79.073,79.073,0,0,0,1.527,27.357,54.358,54.358,0,0,0,10.225,21.664,47.52,47.52,0,0,0,23.952,15.686,1.274,1.274,0,0,0,.733,0c12.515-3.761,21.99-11.117,28.161-21.865,4.446-7.744,7.091-17.032,7.862-27.608A1.274,1.274,0,0,0,109.816,75.5Z" transform="translate(-37.983 -44.419)"/><path d="M245.317,34.715c-17.2-9.083-34.759-16.11-34.934-16.18a1.275,1.275,0,0,0-.944,0c-.03.012-3.038,1.213-7.7,3.23a1.274,1.274,0,1,0,1.011,2.338c3.565-1.541,6.151-2.6,7.165-3.011,2.867,1.164,18.309,7.522,33.632,15.568a72.836,72.836,0,0,1,.426,9.138,1.273,1.273,0,0,0,1.257,1.29h.016a1.274,1.274,0,0,0,1.273-1.257,69.134,69.134,0,0,0-.534-10.178A1.273,1.273,0,0,0,245.317,34.715Z" transform="translate(-173.29 -18.445)"/><path d="M85.4,107.765a1.274,1.274,0,0,0-.7,1.66c4.658,11.449,13.083,19.076,25.042,22.669a1.274,1.274,0,0,0,.733,0,38.009,38.009,0,0,0,19.158-12.549,43.444,43.444,0,0,0,8.174-17.314A63.118,63.118,0,0,0,139.026,80.4a1.274,1.274,0,0,0-.665-.937c-13.679-7.223-27.64-12.811-27.78-12.867a1.275,1.275,0,0,0-.944,0c-.139.056-14.1,5.644-27.78,12.867a1.273,1.273,0,0,0-.665.937,62.684,62.684,0,0,0,1.936,24.529,1.274,1.274,0,0,0,2.443-.722,61.574,61.574,0,0,1-1.938-22.8c11.954-6.268,23.974-11.236,26.475-12.253,2.5,1.018,14.522,5.986,26.476,12.253a62.226,62.226,0,0,1-1.254,20.235c-3.443,14.4-11.928,23.787-25.221,27.9a35,35,0,0,1-23.049-21.078A1.274,1.274,0,0,0,85.4,107.765Z" transform="translate(-73.488 -58.341)"/><path class="a" d="M170.435,205.789l-1.608,1.608a4.478,4.478,0,0,1-6.334,0l-7.765-7.765a4.479,4.479,0,0,1,6.334-6.334l4.6,4.6,4.775-4.775,9.373-9.375a4.481,4.481,0,0,1,6.334,0Z" transform="translate(-130.832 -155.769)"/></g><path class="d" d="M3947.617,14240.333v5.834l-28.283,13.333a31.088,31.088,0,0,0-.833,11.667c.667,7.166,1.167,11.167,1.833,12.5s3.167,9,5.5,12.666,10,10.334,11.833,11.667,9.95,4,9.95,4a51.155,51.155,0,0,0,10.884-4.833,33.382,33.382,0,0,0,9.667-9.667,74.205,74.205,0,0,0,4.333-7l2.833-9.833,1.833-13.834,4,9s-3.167,19.666-13,29a60.749,60.749,0,0,1-20.55,12.834,36.968,36.968,0,0,1-16.783-9.667c-7.5-7.667-10.667-10.5-13.167-18.333s-4.167-21.667-4-25.667,0-8,0-8Z" transform="translate(-3767 -13071.333)"/></g></svg>