<svg xmlns="http://www.w3.org/2000/svg" width="29.809" height="28.007" viewBox="0 0 29.809 28.007"><g transform="translate(-959 -26)"><g transform="translate(959 10.531)"><path d="M44.128,22.357a.88.88,0,0,0-.486-.429l-6.464-2.353a2.621,2.621,0,0,0-4.686-1.706l-6.454-2.349h0a.881.881,0,0,0-1.078.428L20.87,24.07h1.956l2.919-5.8,2.954,5.8h1.96l-3.134-6.15,4.413,1.606a2.618,2.618,0,0,0,1.748,2.43V38.918a.873.873,0,1,0,1.747,0V21.956A2.6,2.6,0,0,0,36.54,21.2l5.586,2.033-3.677,7.3H40.4l2.943-5.846,2.945,5.846h1.956ZM35.179,20.1a.876.876,0,1,1,0-1.239A.877.877,0,0,1,35.179,20.1Z" transform="translate(-19.655 0)" fill="#3c3c3b"/><path d="M167.606,404.243H165.55a4.5,4.5,0,0,0-4.5,4.5.873.873,0,0,0,.873.873h9.309a.873.873,0,0,0,.873-.873A4.5,4.5,0,0,0,167.606,404.243Z" transform="translate(-151.674 -366.14)" fill="#3c3c3b"/><path d="M313.306,304.3H302.823a.873.873,0,0,0-.873.873,6.115,6.115,0,1,0,12.229,0A.873.873,0,0,0,313.306,304.3Z" transform="translate(-284.371 -272.015)" fill="#3c3c3b"/><path d="M11.359,193.205H.873a.873.873,0,0,0-.873.873,6.116,6.116,0,1,0,12.232,0A.873.873,0,0,0,11.359,193.205Z" transform="translate(0 -167.388)" fill="#3c3c3b"/></g></g></svg>