<svg xmlns="http://www.w3.org/2000/svg" viewBox="0 0 512 512"><defs><style>.cls-1{fill:#d8dcd7;}.cls-1,.cls-2,.cls-3,.cls-4{stroke:#3c3c3b;stroke-linecap:round;stroke-linejoin:round;stroke-width:6px;}.cls-1,.cls-2,.cls-4{fill-rule:evenodd;}.cls-2{fill:#fff;}.cls-3,.cls-4{fill:#80be70;}</style></defs><g id="Layer_1" data-name="Layer 1"><path class="cls-1" d="M330,103.07h60.44V424.92"/><path class="cls-1" d="M270.85,424.92H131.26A18.88,18.88,0,0,1,112.38,406v-303H294.65"/><polyline class="cls-2" points="327.89 103.07 367.27 103.07 367.27 401.85 135.49 401.85 135.49 103.07 300.7 103.07"/><line class="cls-3" x1="329.95" y1="166.85" x2="211.75" y2="166.85"/><line class="cls-3" x1="190.08" y1="166.85" x2="172.81" y2="166.85"/><line class="cls-3" x1="329.95" y1="214.39" x2="211.75" y2="214.39"/><line class="cls-3" x1="190.08" y1="214.39" x2="172.81" y2="214.39"/><line class="cls-3" x1="329.95" y1="266.07" x2="211.75" y2="266.07"/><line class="cls-3" x1="190.08" y1="266.07" x2="172.81" y2="266.07"/><line class="cls-3" x1="308.41" y1="313.61" x2="211.75" y2="313.61"/><line class="cls-3" x1="190.08" y1="313.61" x2="172.81" y2="313.61"/><line class="cls-3" x1="277.28" y1="361.15" x2="211.75" y2="361.15"/><line class="cls-3" x1="190.08" y1="361.15" x2="172.81" y2="361.15"/><path class="cls-4" d="M367.27,470a92.56,92.56,0,1,1,88.39-64.8,91.48,91.48,0,0,1-6.19,14.93,92.88,92.88,0,0,1-56.65,46.3"/><rect class="cls-3" x="194.35" y="81.55" width="114.06" height="43.06" rx="12.52"/><polyline class="cls-4" points="331.54 382.56 355.92 406.95 415.22 347.65"/><line class="cls-3" x1="91.98" y1="85.69" x2="71.15" y2="64.86"/><line class="cls-3" x1="83.31" y1="116.03" x2="53.85" y2="116.03"/><line class="cls-3" x1="119.66" y1="76.51" x2="119.66" y2="47.06"/></g></svg>