<svg xmlns="http://www.w3.org/2000/svg" viewBox="0 0 512 512"><defs><style>.cls-1,.cls-5{fill:none;}.cls-1,.cls-2,.cls-3,.cls-4,.cls-5{stroke:#3c3c3b;stroke-linecap:round;stroke-linejoin:round;stroke-width:6px;}.cls-1,.cls-2,.cls-4{fill-rule:evenodd;}.cls-2{fill:#80be70;}.cls-3{fill:#d8dcd7;}.cls-4{fill:#fff;}</style></defs><g id="Layer_1" data-name="Layer 1"><path class="cls-1" d="M304.15,162.59S329,143.35,359,144.19s36-21.08,36-21.08"/><path class="cls-2" d="M288.74,171.27H216s-19.79-60-41.57-81.94c.93-.91,40.64-1.12,50.76,18.56,2.25-5.62,13.35-42.17,27.2-48.35,13.85,6.18,25,42.73,27.2,48.35,10.12-19.68,49.83-19.47,50.76-18.56-9.83,9.9-19.26,27.56-26.64,44"/><ellipse class="cls-3" cx="252.34" cy="163.87" rx="54.63" ry="25.16"/><path class="cls-1" d="M301.44,165.25s30.76-6.25,57.35,7.84,41.6-3,41.6-3"/><path class="cls-2" d="M106.29,288.16c12.87-75.24,75-132.3,149.71-132.3,84,0,152.16,72.2,152.16,161.26S340,434,256,434,103.84,406.18,103.84,317.12c0-1.81,0-3.61.08-5.4"/><path class="cls-4" d="M256,379.81a85.11,85.11,0,1,1,28-4.7"/><path class="cls-3" d="M257.77,327c-10.13-1.86-20.88-10.18-22.36-17.17H263.5v-10H234.77V290H263.5v-10H235.41c1.48-7,12.23-15.3,22.36-17.17s19.23.66,27.15,7.15l8.8-8.75a41.88,41.88,0,0,0-18.28-9.94,44.84,44.84,0,0,0-53.21,26.39,3.16,3.16,0,0,1-3.55,2.28c-4.9-.12-9.8,0-14.88,0v9.82h16.85v10.29H203.8v9.82c5.08,0,10,.08,14.88,0a3.18,3.18,0,0,1,3.55,2.28,44.84,44.84,0,0,0,53.21,26.39,42,42,0,0,0,18.28-9.93l-8.8-8.76C277,326.35,267.89,328.87,257.77,327Z"/><line class="cls-5" x1="47.14" y1="287.72" x2="25.78" y2="287.72"/><line class="cls-5" x1="471.74" y1="287.72" x2="450.37" y2="287.72"/><line class="cls-5" x1="106.2" y1="145.16" x2="91.09" y2="130.05"/><line class="cls-5" x1="406.43" y1="445.39" x2="391.32" y2="430.29"/><line class="cls-5" x1="91.09" y1="445.39" x2="106.2" y2="430.29"/></g></svg>