<?xml version="1.0" encoding="utf-8"?>
<!-- Generator: Adobe Illustrator 25.0.1, SVG Export Plug-In . SVG Version: 6.00 Build 0)  -->
<svg version="1.1" id="Ebene_1" xmlns="http://www.w3.org/2000/svg" xmlns:xlink="http://www.w3.org/1999/xlink" x="0px" y="0px"
	 viewBox="0 0 512 512" style="enable-background:new 0 0 512 512;" xml:space="preserve">
<style type="text/css">
	.st0{fill:#FFFFFF;stroke:#3C3C3B;stroke-width:9;stroke-linecap:round;stroke-linejoin:round;}
	
		.st1{fill-rule:evenodd;clip-rule:evenodd;fill:#FFFFFF;stroke:#3C3C3B;stroke-width:9;stroke-linecap:round;stroke-linejoin:round;}
	.st2{fill:#80BE70;stroke:#3C3C3B;stroke-width:9;stroke-linecap:round;stroke-linejoin:round;}
	
		.st3{fill-rule:evenodd;clip-rule:evenodd;fill:#80BE70;stroke:#3C3C3B;stroke-width:9;stroke-linecap:round;stroke-linejoin:round;}
</style>
<g id="Layer_1">
	<path class="st0" d="M100.6,195.1h30.6c7.9,0,14.2,6.4,14.2,14.2v0.2c0,7.9-6.4,14.2-14.2,14.2h-30.6c-7.9,0-14.2-6.4-14.2-14.2
		v-0.2C86.4,201.5,92.7,195.1,100.6,195.1z"/>
	<path class="st0" d="M348.5,195.1H379c7.9,0,14.2,6.4,14.2,14.2v0.2c0,7.9-6.4,14.2-14.2,14.2h-30.6c-7.9,0-14.2-6.4-14.2-14.2
		v-0.2C334.2,201.5,340.6,195.1,348.5,195.1z"/>
	<rect x="131.3" y="230.8" class="st0" width="38.2" height="63.8"/>
	<path class="st1" d="M188.6,245.4c-7.6,9.2-18.9,14.5-30.9,14.5h-14.5c-22.1,0-40.1-17.9-40.1-40l0,0v-32.5
		c0-22.1,17.9-40,39.9-40.1h0.1h14.5c22.1,0,40.1,17.9,40.1,40l0,0v32.5"/>
	<path class="st2" d="M143.5,278.2h13.8c28.8,0,52.2,23.4,52.2,52.2V373c0,7.8-6.3,14.1-14.1,14.1h-90c-7.8,0-14-6.3-14-14.1v-42.6
		C91.4,301.5,114.7,278.2,143.5,278.2z"/>
	<rect x="309.9" y="230.8" class="st0" width="38.2" height="63.8"/>
	<path class="st1" d="M304.1,151.4c5.5-2.7,11.5-4.1,17.6-4.1h14.5c22.1,0,40,17.9,40,40c0,0,0,0,0,0.1v32.5c0,22.1-17.9,40-40,40.1
		h-14.5c-22.1,0-40.1-17.9-40.1-40.1v-32.5"/>
	<path class="st2" d="M322.1,278.2h13.8c28.8,0,52.2,23.4,52.2,52.2V373c0,7.8-6.3,14.1-14.1,14.1h-90c-7.8,0-14.1-6.3-14.1-14.1
		l0,0v-42.6C269.9,301.5,293.3,278.2,322.1,278.2z"/>
	<rect x="219.7" y="212.4" class="st0" width="43.3" height="72.3"/>
	<path class="st0" d="M185.2,177.8h112.3c7.2,0,13.1,5.9,13.1,13.1v2.8c0,7.2-5.9,13.1-13.1,13.1H185.2c-7.2,0-13.1-5.9-13.1-13.1
		v-2.8C172.1,183.6,178,177.8,185.2,177.8z"/>
	<path class="st0" d="M232,117.8h18.8c24.4,0,44.2,19.8,44.2,44.2v39.1c0,24.4-19.8,44.2-44.2,44.2H232c-24.4,0-44.2-19.8-44.2-44.2
		V162C187.8,137.6,207.5,117.8,232,117.8z"/>
	<path class="st2" d="M226.6,266.1h29.5c28.8,0,52.2,23.4,52.2,52.2v57.2c0,7.8-6.3,14.1-14.1,14.1H188.5c-7.8,0-14.1-6.3-14.1-14.1
		v-57.2C174.4,289.5,197.8,266.1,226.6,266.1z"/>
	<path class="st1" d="M355.9,435.4H77.1c-26.7,0-48.3-21.6-48.3-48.3l0,0l0,0c0-26.7,21.6-48.3,48.3-48.3h328.4
		c26.7,0,48.3,21.6,48.3,48.3l0,0c0,26.7-21.6,48.3-48.3,48.3l0,0h-28.4"/>
	<path class="st3" d="M105.6,364.5l5.1,10.3c0.6,1.3,1.9,2.2,3.3,2.4l11.3,1.6c2.4,0.4,4.1,2.6,3.7,5c-0.1,1-0.6,1.8-1.3,2.5l-8.2,8
		c-1,1-1.5,2.5-1.3,3.9l1.9,11.3c0.4,2.4-1.2,4.7-3.6,5.1c-1,0.2-1.9,0-2.8-0.4l-10.2-5.3c-1.3-0.7-2.8-0.7-4.1,0l-10.1,5.3
		c-2.2,1.1-4.8,0.3-6-1.8c-0.5-0.9-0.6-1.9-0.5-2.8l1.9-11.3c0.2-1.4-0.2-2.9-1.3-3.9l-8.2-8c-1.7-1.7-1.8-4.5-0.1-6.3
		c0.7-0.7,1.6-1.1,2.5-1.3l11.3-1.6c1.4-0.2,2.7-1.1,3.3-2.4l5.1-10.3c1.1-2.2,3.7-3.1,5.9-2C104.5,362.9,105.2,363.6,105.6,364.5z"
		/>
	<path class="st3" d="M175.3,364.5l5.1,10.3c0.6,1.3,1.9,2.2,3.3,2.4l11.3,1.6c2.4,0.4,4.1,2.6,3.7,5c-0.1,1-0.6,1.8-1.3,2.5l-8.2,8
		c-1,1-1.5,2.5-1.3,3.9l1.9,11.3c0.4,2.4-1.2,4.7-3.6,5.1c-1,0.2-2,0-2.8-0.4l-10.1-5.3c-1.3-0.7-2.8-0.7-4.1,0l-10.1,5.3
		c-2.2,1.1-4.8,0.3-6-1.8c-0.5-0.9-0.6-1.9-0.4-2.8l1.9-11.3c0.2-1.4-0.2-2.9-1.3-3.9l-8.2-8c-1.7-1.7-1.8-4.5-0.1-6.3
		c0.7-0.7,1.6-1.1,2.5-1.3l11.3-1.6c1.4-0.2,2.7-1.1,3.3-2.4l5.1-10.3c1.1-2.2,3.7-3.1,5.9-2C174.1,362.9,174.8,363.6,175.3,364.5z"
		/>
	<path class="st3" d="M246.4,364.5l5.1,10.3c0.6,1.3,1.9,2.2,3.3,2.4l11.3,1.6c2.4,0.3,4.1,2.6,3.8,5c-0.1,1-0.6,1.9-1.3,2.6l-8.2,8
		c-1,1-1.5,2.5-1.3,3.9l1.9,11.3c0.4,2.4-1.2,4.7-3.6,5.1c-1,0.2-2,0-2.8-0.4l-10.1-5.3c-1.3-0.7-2.8-0.7-4.1,0l-10.1,5.3
		c-2.2,1.1-4.8,0.3-6-1.9c-0.5-0.9-0.6-1.9-0.4-2.8l1.9-11.3c0.2-1.4-0.2-2.9-1.3-3.9l-8.2-8c-1.7-1.7-1.8-4.5-0.1-6.3
		c0.7-0.7,1.6-1.1,2.5-1.3l11.3-1.6c1.4-0.2,2.7-1.1,3.3-2.4l5.1-10.3c1.1-2.2,3.7-3.1,5.9-2C245.2,362.9,245.9,363.6,246.4,364.5z"
		/>
	<path class="st3" d="M316.8,364.5l5.1,10.3c0.6,1.3,1.9,2.2,3.3,2.4l11.3,1.6c2.4,0.4,4.1,2.6,3.7,5c-0.1,1-0.6,1.8-1.3,2.5l-8.2,8
		c-1,1-1.5,2.5-1.3,3.9l1.9,11.3c0.4,2.4-1.2,4.7-3.6,5.1c-1,0.2-1.9,0-2.8-0.4l-10.1-5.3c-1.3-0.7-2.8-0.7-4.1,0l-10.1,5.3
		c-2.2,1.1-4.8,0.3-6-1.8c-0.5-0.9-0.6-1.9-0.4-2.8l1.9-11.3c0.2-1.4-0.2-2.9-1.3-3.9l-8.2-8c-1.7-1.7-1.8-4.5-0.1-6.3
		c0.7-0.7,1.6-1.1,2.5-1.3l11.3-1.6c1.4-0.2,2.7-1.1,3.3-2.4l5.1-10.3c1.1-2.2,3.7-3.1,5.9-2C315.6,362.9,316.3,363.6,316.8,364.5z"
		/>
	<path class="st3" d="M387.4,364.5l5.1,10.3c0.6,1.3,1.9,2.2,3.3,2.4l11.3,1.6c2.4,0.4,4.1,2.6,3.7,5c-0.1,1-0.6,1.8-1.3,2.5l-8.2,8
		c-1,1-1.5,2.5-1.3,3.9l1.9,11.3c0.4,2.4-1.2,4.7-3.6,5.1c-1,0.2-2,0-2.8-0.4l-10.1-5.3c-1.3-0.7-2.8-0.7-4.1,0l-10.1,5.3
		c-2.2,1.1-4.8,0.3-6-1.9c-0.4-0.9-0.6-1.8-0.4-2.8l1.9-11.3c0.2-1.4-0.2-2.9-1.3-3.9l-8.2-8c-1.7-1.7-1.8-4.5-0.1-6.3
		c0.7-0.7,1.6-1.1,2.5-1.3l11.3-1.6c1.4-0.2,2.7-1.1,3.3-2.4l5.1-10.3c1.1-2.2,3.7-3.1,5.9-2C386.2,362.9,386.9,363.6,387.4,364.5z"
		/>
</g>
</svg>
