<svg xmlns="http://www.w3.org/2000/svg" width="173" height="90" viewBox="0 0 173 90">
  <g id="Group_17999" data-name="Group 17999" transform="translate(-920 -1169)">
    <g id="kyc" transform="translate(920 1169)">
      <path id="Path_5959" data-name="Path 5959" d="M151.392,35.043a8.855,8.855,0,0,1-8.866-8.866,8.952,8.952,0,0,1,.335-2.377H120.954a1.56,1.56,0,0,0-1.554,1.554v49.3a1.56,1.56,0,0,0,1.554,1.554h33.668a1.56,1.56,0,0,0,1.554-1.554V33.641a8.858,8.858,0,0,1-4.784,1.4Z" transform="translate(-83.02 -16.548)" fill="#d8dcd7"/>
      <path id="Path_5966" data-name="Path 5966" d="M53.733,157.945H39.657a1.56,1.56,0,0,1-1.554-1.554v-9.2l-1.615-.792a3.721,3.721,0,0,1-2.072-3.352V141.4a11.416,11.416,0,0,1-11.4,0v1.645a3.721,3.721,0,0,1-2.072,3.352l-2.712,1.341a10.193,10.193,0,0,1-2.1.762L7.6,150.632a4.905,4.905,0,0,0-3.687,4.479L2.485,173.3a2.075,2.075,0,0,0,1.889,2.224H52.91a2.074,2.074,0,0,0,2.072-2.072V173.3Z" transform="translate(-1.723 -98.317)" fill="#80be70"/>
      <path id="Path_5968" data-name="Path 5968" d="M76.591,119.111a6.045,6.045,0,0,1-5.149-2.834.785.785,0,0,1,.244-1.066.759.759,0,0,1,1.066.244,4.552,4.552,0,0,0,7.709,0,.774.774,0,0,1,1.31.823A6.208,6.208,0,0,1,76.591,119.111Z" transform="translate(-49.595 -80.019)"/>
      <circle id="Ellipse_2126" data-name="Ellipse 2126" cx="1.371" cy="1.371" r="1.371" transform="translate(20.658 28.214)"/>
      <circle id="Ellipse_2127" data-name="Ellipse 2127" cx="1.371" cy="1.371" r="1.371" transform="translate(30.834 28.214)"/>
      <path id="Path_5969" data-name="Path 5969" d="M35.406,88.282a5.591,5.591,0,1,1-.03-11.182c.3,0,.609.03.914.061a.758.758,0,0,1,.64.762v8.745a6.379,6.379,0,0,0,.03.731.739.739,0,0,1-.64.792A4.65,4.65,0,0,1,35.406,88.282Zm0-9.659a4.052,4.052,0,1,0,0,8.1v-8.1Z" transform="translate(-20.72 -53.609)"/>
      <path id="Path_5970" data-name="Path 5970" d="M51.187,174.687H2.834A2.828,2.828,0,0,1,0,171.853v-.213l1.432-18.19A5.612,5.612,0,0,1,5.7,148.3l8.531-2.133a11.472,11.472,0,0,0,1.95-.7l2.712-1.341a2.893,2.893,0,0,0,1.645-2.651v-1.645a.754.754,0,0,1,.762-.762.724.724,0,0,1,.366.091,10.685,10.685,0,0,0,10.634,0,.752.752,0,0,1,1.036.274.811.811,0,0,1,.091.366v1.645A2.946,2.946,0,0,0,35.07,144.1l1.615.792a.731.731,0,0,1,.427.67v9.2a.787.787,0,0,0,.792.792H51.98a.764.764,0,0,1,.762.7L53.96,171.64a2.831,2.831,0,0,1-2.59,3.047h-.183ZM22.059,141.05v.4a4.471,4.471,0,0,1-2.5,4.022l-2.712,1.341a9.494,9.494,0,0,1-2.255.823l-8.531,2.133a4.061,4.061,0,0,0-3.108,3.778l-1.432,18.22a1.318,1.318,0,0,0,1.188,1.4H51.187a1.3,1.3,0,0,0,1.31-1.31v-.091L51.34,157.076H37.964a2.315,2.315,0,0,1-2.316-2.316v-8.714l-1.188-.579a4.45,4.45,0,0,1-2.5-4.022v-.4A12.434,12.434,0,0,1,22.059,141.05Z" transform="translate(0 -96.687)"/>
      <path id="Path_5971" data-name="Path 5971" d="M64.631,151.927a12.232,12.232,0,0,1-10.39-5.728.785.785,0,0,1,.244-1.066.106.106,0,0,0,.061-.03l1.98-.975a2.893,2.893,0,0,0,1.645-2.651v-1.645a.754.754,0,0,1,.762-.762.724.724,0,0,1,.366.091,10.685,10.685,0,0,0,10.634,0,.752.752,0,0,1,1.036.274.811.811,0,0,1,.091.366v1.645a2.946,2.946,0,0,0,1.645,2.651l1.615.792a.731.731,0,0,1,.427.67v.7a.907.907,0,0,1-.152.457,12.179,12.179,0,0,1-9.963,5.21Zm-8.623-5.88a10.755,10.755,0,0,0,17.245,0l-1.188-.579a4.45,4.45,0,0,1-2.5-4.022v-.4a12.114,12.114,0,0,1-9.872,0v.4a4.471,4.471,0,0,1-2.5,4.022Z" transform="translate(-37.886 -96.07)"/>
      <circle id="Ellipse_2128" data-name="Ellipse 2128" cx="8.866" cy="8.866" r="8.866" transform="translate(59.505 0.762)" fill="#80be70"/>
      <path id="Path_5972" data-name="Path 5972" d="M210.76,27.221l-2.712-2.712a1.53,1.53,0,1,1,2.133-2.194l.03.03,1.645,1.645,3.443-3.443a1.53,1.53,0,1,1,2.194,2.133l-.03.03-4.509,4.509a1.545,1.545,0,0,1-2.194,0Z" transform="translate(-144.338 -13.967)" fill="#edf4fc"/>
      <path id="Path_5973" data-name="Path 5973" d="M202.428,19.256a9.628,9.628,0,1,1,9.628-9.628A9.629,9.629,0,0,1,202.428,19.256Zm0-17.733a8.1,8.1,0,1,0,8.1,8.1A8.1,8.1,0,0,0,202.428,1.523Z" transform="translate(-134.056)"/>
      <path id="Path_5975" data-name="Path 5975" d="M152.884,75.2H119.216a2.315,2.315,0,0,1-2.316-2.316V23.616a2.315,2.315,0,0,1,2.316-2.316h21.907a.754.754,0,0,1,.762.762.519.519,0,0,1-.03.213,8.112,8.112,0,0,0,12.188,8.988.785.785,0,0,1,1.066.244.67.67,0,0,1,.122.4V72.914a2.355,2.355,0,0,1-2.346,2.285ZM119.216,22.823a.787.787,0,0,0-.792.792v49.3a.787.787,0,0,0,.792.792h33.668a.787.787,0,0,0,.792-.792V33.183a9.616,9.616,0,0,1-12.766-4.723,9.441,9.441,0,0,1-.731-5.637Z" transform="translate(-81.282 -14.81)"/>
      <path id="Path_5976" data-name="Path 5976" d="M36.562,42.7a.754.754,0,0,1-.762-.762V36.605A12.737,12.737,0,0,1,48.505,23.9h3.382A7.4,7.4,0,0,1,57.8,26.886a7.378,7.378,0,0,1,3.5-.7.791.791,0,0,1,.731.762V38.464a.754.754,0,0,1-.762.762H61.18a12.066,12.066,0,0,1-7.069-2.986c-4.418,5.454-10.877,4.753-13.01,4.327v.366a.754.754,0,0,1-.762.762h-.122a4.546,4.546,0,0,0-.64-.061,3.993,3.993,0,0,0-2.529.884.692.692,0,0,1-.487.183ZM48.505,25.423A11.209,11.209,0,0,0,37.323,36.605V40.6a5.154,5.154,0,0,1,2.255-.457,1.357,1.357,0,0,1,1.615-1.066c2.285.427,7.952,1.005,11.822-3.87a1.369,1.369,0,0,1,1.95-.213.421.421,0,0,0,.122.091,9.941,9.941,0,0,0,5.454,2.529V27.739a5.406,5.406,0,0,0-2.559.823.752.752,0,0,1-1.036-.274,5.925,5.925,0,0,0-5-2.864Z" transform="translate(-24.892 -16.618)"/>
      <path id="Path_5977" data-name="Path 5977" d="M60.509,86.612A12.314,12.314,0,0,1,48.2,74.3V64.98a1.3,1.3,0,0,1,.518-1.066,1.345,1.345,0,0,1,1.158-.274c2.224.457,7.891,1.036,11.761-3.839a1.369,1.369,0,0,1,1.95-.213.421.421,0,0,0,.122.091,10.467,10.467,0,0,0,6.307,2.681.759.759,0,0,1,.67.762V81.037a.907.907,0,0,1-.152.457A12.582,12.582,0,0,1,60.509,86.612ZM49.723,65.162v9.11a10.8,10.8,0,0,0,19.439,6.459v-17a11.723,11.723,0,0,1-6.4-2.895C58.316,66.29,51.856,65.589,49.723,65.162Z" transform="translate(-33.514 -41.214)"/>
      <path id="Path_5978" data-name="Path 5978" d="M171.426,69.823H160.762a.762.762,0,0,1,0-1.523h10.664a.762.762,0,0,1,0,1.523Z" transform="translate(-111.25 -47.49)"/>
      <path id="Path_5979" data-name="Path 5979" d="M171.105,89.823H151.362a.762.762,0,0,1,0-1.523h19.744a.762.762,0,1,1,0,1.523Z" transform="translate(-104.714 -61.396)"/>
      <path id="Path_5980" data-name="Path 5980" d="M171.105,102.523H151.362a.762.762,0,0,1,0-1.523h19.744a.762.762,0,0,1,0,1.523Z" transform="translate(-104.714 -70.227)"/>
      <path id="Path_5981" data-name="Path 5981" d="M171.105,115.223H151.362a.762.762,0,0,1,0-1.523h19.744a.762.762,0,0,1,0,1.523Z" transform="translate(-104.714 -79.057)"/>
      <path id="Path_5982" data-name="Path 5982" d="M171.105,127.923H151.362a.762.762,0,0,1,0-1.523h19.744a.754.754,0,0,1,.762.762A.774.774,0,0,1,171.105,127.923Z" transform="translate(-104.714 -87.887)"/>
      <path id="Path_5983" data-name="Path 5983" d="M171.105,140.523H151.362a.762.762,0,1,1,0-1.523h19.744a.762.762,0,1,1,0,1.523Z" transform="translate(-104.714 -96.648)"/>
      <path id="Path_5984" data-name="Path 5984" d="M171.105,153.223H151.362a.762.762,0,1,1,0-1.523h19.744a.762.762,0,1,1,0,1.523Z" transform="translate(-104.714 -105.479)"/>
      <path id="Path_5985" data-name="Path 5985" d="M138.841,89.823h-.579a.762.762,0,0,1,0-1.523h.579a.762.762,0,0,1,0,1.523Z" transform="translate(-95.605 -61.396)"/>
      <path id="Path_5986" data-name="Path 5986" d="M138.841,102.523h-.579a.762.762,0,0,1,0-1.523h.579a.762.762,0,0,1,0,1.523Z" transform="translate(-95.605 -70.227)"/>
      <path id="Path_5987" data-name="Path 5987" d="M138.841,115.223h-.579a.762.762,0,0,1,0-1.523h.579a.762.762,0,0,1,0,1.523Z" transform="translate(-95.605 -79.057)"/>
      <path id="Path_5988" data-name="Path 5988" d="M138.841,127.923h-.579a.762.762,0,0,1,0-1.523h.579a.754.754,0,0,1,.762.762A.774.774,0,0,1,138.841,127.923Z" transform="translate(-95.605 -87.887)"/>
      <path id="Path_5989" data-name="Path 5989" d="M138.841,140.523h-.579a.762.762,0,0,1,0-1.523h.579a.762.762,0,0,1,0,1.523Z" transform="translate(-95.605 -96.648)"/>
      <path id="Path_5990" data-name="Path 5990" d="M138.841,153.223h-.579a.762.762,0,0,1,0-1.523h.579a.762.762,0,0,1,0,1.523Z" transform="translate(-95.605 -105.479)"/>
      <path id="Path_5991" data-name="Path 5991" d="M31.262,222.754a.754.754,0,0,1-.762-.762v-11.73a.762.762,0,0,1,1.523,0v11.73A.754.754,0,0,1,31.262,222.754Z" transform="translate(-21.207 -145.668)"/>
      <path id="Path_5992" data-name="Path 5992" d="M143.262,222.754a.754.754,0,0,1-.762-.762v-11.73a.762.762,0,1,1,1.523,0v11.73A.754.754,0,0,1,143.262,222.754Z" transform="translate(-99.082 -145.668)"/>
    </g>
    <text id="_97_" data-name="97% " transform="translate(999 1243)" font-size="45" font-family="Poppins-SemiBold, Poppins" font-weight="600"><tspan x="0" y="0">97% </tspan></text>
  </g>
</svg>
