<?xml version="1.0" encoding="utf-8"?>
<!-- Generator: Adobe Illustrator 25.0.1, SVG Export Plug-In . SVG Version: 6.00 Build 0)  -->
<svg version="1.1" id="Ebene_1" xmlns="http://www.w3.org/2000/svg" xmlns:xlink="http://www.w3.org/1999/xlink" x="0px" y="0px"
	 viewBox="0 0 434 326.6" style="enable-background:new 0 0 434 326.6;" xml:space="preserve">
<style type="text/css">
	.st0{fill:#FFFFFF;stroke:#3C3C3B;stroke-width:9;stroke-linecap:round;stroke-linejoin:round;}
	
		.st1{fill-rule:evenodd;clip-rule:evenodd;fill:#FFFFFF;stroke:#3C3C3B;stroke-width:9;stroke-linecap:round;stroke-linejoin:round;}
	.st2{fill:#80BE70;stroke:#3C3C3B;stroke-width:9;stroke-linecap:round;stroke-linejoin:round;}
	
		.st3{fill-rule:evenodd;clip-rule:evenodd;fill:#80BE70;stroke:#3C3C3B;stroke-width:9;stroke-linecap:round;stroke-linejoin:round;}
</style>
<g id="Layer_1">
	<path class="st0" d="M76.3,81.8h30.6c7.9,0,14.2,6.4,14.2,14.2v0.2c0,7.9-6.4,14.2-14.2,14.2H76.3c-7.9,0-14.2-6.4-14.2-14.2V96
		C62.1,88.2,68.4,81.8,76.3,81.8z"/>
	<path class="st0" d="M324.2,81.8h30.5c7.9,0,14.2,6.4,14.2,14.2v0.2c0,7.9-6.4,14.2-14.2,14.2h-30.6c-7.9,0-14.2-6.4-14.2-14.2V96
		C309.9,88.2,316.3,81.8,324.2,81.8z"/>
	<rect x="107" y="117.5" class="st0" width="38.2" height="63.8"/>
	<path class="st1" d="M164.3,132.1c-7.6,9.2-18.9,14.5-30.9,14.5h-14.5c-22.1,0-40.1-17.9-40.1-40l0,0V74.1
		c0-22.1,17.9-40,39.9-40.1h0.1h14.5c22.1,0,40.1,17.9,40.1,40l0,0v32.5"/>
	<path class="st2" d="M119.2,164.9H133c28.8,0,52.2,23.4,52.2,52.2v42.6c0,7.8-6.3,14.1-14.1,14.1h-90c-7.8,0-14-6.3-14-14.1v-42.6
		C67.1,188.2,90.4,164.9,119.2,164.9z"/>
	<rect x="285.6" y="117.5" class="st0" width="38.2" height="63.8"/>
	<path class="st1" d="M279.8,38.1c5.5-2.7,11.5-4.1,17.6-4.1h14.5c22.1,0,40,17.9,40,40c0,0,0,0,0,0.1v32.5c0,22.1-17.9,40-40,40.1
		h-14.5c-22.1,0-40.1-17.9-40.1-40.1V74.1"/>
	<path class="st2" d="M297.8,164.9h13.8c28.8,0,52.2,23.4,52.2,52.2v42.6c0,7.8-6.3,14.1-14.1,14.1h-90c-7.8,0-14.1-6.3-14.1-14.1
		l0,0v-42.6C245.6,188.2,269,164.9,297.8,164.9z"/>
	<rect x="195.4" y="99.1" class="st0" width="43.3" height="72.3"/>
	<path class="st0" d="M160.9,64.5h112.3c7.2,0,13.1,5.9,13.1,13.1v2.8c0,7.2-5.9,13.1-13.1,13.1H160.9c-7.2,0-13.1-5.9-13.1-13.1
		v-2.8C147.8,70.3,153.7,64.5,160.9,64.5z"/>
	<path class="st0" d="M207.7,4.5h18.8c24.4,0,44.2,19.8,44.2,44.2v39.1c0,24.4-19.8,44.2-44.2,44.2h-18.8
		c-24.4,0-44.2-19.8-44.2-44.2V48.7C163.5,24.3,183.2,4.5,207.7,4.5z"/>
	<path class="st2" d="M202.3,152.8h29.5c28.8,0,52.2,23.4,52.2,52.2v57.2c0,7.8-6.3,14.1-14.1,14.1H164.2c-7.8,0-14.1-6.3-14.1-14.1
		V205C150.1,176.2,173.5,152.8,202.3,152.8z"/>
	<path class="st1" d="M331.6,322.1H52.8c-26.7,0-48.3-21.6-48.3-48.3l0,0l0,0c0-26.7,21.6-48.3,48.3-48.3h328.4
		c26.7,0,48.3,21.6,48.3,48.3l0,0c0,26.7-21.6,48.3-48.3,48.3l0,0h-28.4"/>
	<path class="st3" d="M81.3,251.2l5.1,10.3c0.6,1.3,1.9,2.2,3.3,2.4l11.3,1.6c2.4,0.4,4.1,2.6,3.7,5c-0.1,1-0.6,1.8-1.3,2.5l-8.2,8
		c-1,1-1.5,2.5-1.3,3.9l1.9,11.3c0.4,2.4-1.2,4.7-3.6,5.1c-1,0.2-1.9,0-2.8-0.4l-10.2-5.3c-1.3-0.7-2.8-0.7-4.1,0L65,300.9
		c-2.2,1.1-4.8,0.3-6-1.8c-0.5-0.9-0.6-1.9-0.5-2.8l1.9-11.3c0.2-1.4-0.2-2.9-1.3-3.9l-8.2-8c-1.7-1.7-1.8-4.5-0.1-6.3
		c0.7-0.7,1.6-1.1,2.5-1.3l11.3-1.6c1.4-0.2,2.7-1.1,3.3-2.4l5.1-10.3c1.1-2.2,3.7-3.1,5.9-2C80.2,249.6,80.9,250.3,81.3,251.2z"/>
	<path class="st3" d="M151,251.2l5.1,10.3c0.6,1.3,1.9,2.2,3.3,2.4l11.3,1.6c2.4,0.4,4.1,2.6,3.7,5c-0.1,1-0.6,1.8-1.3,2.5l-8.2,8
		c-1,1-1.5,2.5-1.3,3.9l1.9,11.3c0.4,2.4-1.2,4.7-3.6,5.1c-1,0.2-2,0-2.8-0.4l-10.1-5.3c-1.3-0.7-2.8-0.7-4.1,0l-10.1,5.3
		c-2.2,1.1-4.8,0.3-6-1.8c-0.5-0.9-0.6-1.9-0.4-2.8l1.9-11.3c0.2-1.4-0.2-2.9-1.3-3.9l-8.2-8c-1.7-1.7-1.8-4.5-0.1-6.3
		c0.7-0.7,1.6-1.1,2.5-1.3l11.3-1.6c1.4-0.2,2.7-1.1,3.3-2.4l5.1-10.3c1.1-2.2,3.7-3.1,5.9-2C149.8,249.6,150.5,250.3,151,251.2z"/>
	<path class="st3" d="M222.1,251.2l5.1,10.3c0.6,1.3,1.9,2.2,3.3,2.4l11.3,1.6c2.4,0.3,4.1,2.6,3.8,5c-0.1,1-0.6,1.9-1.3,2.6l-8.2,8
		c-1,1-1.5,2.5-1.3,3.9l1.9,11.3c0.4,2.4-1.2,4.7-3.6,5.1c-1,0.2-2,0-2.8-0.4l-10.1-5.3c-1.3-0.7-2.8-0.7-4.1,0L206,301
		c-2.2,1.1-4.8,0.3-6-1.9c-0.5-0.9-0.6-1.9-0.4-2.8l1.9-11.3c0.2-1.4-0.2-2.9-1.3-3.9l-8.2-8c-1.7-1.7-1.8-4.5-0.1-6.3
		c0.7-0.7,1.6-1.1,2.5-1.3l11.3-1.6c1.4-0.2,2.7-1.1,3.3-2.4l5.1-10.3c1.1-2.2,3.7-3.1,5.9-2C220.9,249.6,221.6,250.3,222.1,251.2z"
		/>
	<path class="st3" d="M292.5,251.2l5.1,10.3c0.6,1.3,1.9,2.2,3.3,2.4l11.3,1.6c2.4,0.4,4.1,2.6,3.7,5c-0.1,1-0.6,1.8-1.3,2.5l-8.2,8
		c-1,1-1.5,2.5-1.3,3.9l1.9,11.3c0.4,2.4-1.2,4.7-3.6,5.1c-1,0.2-1.9,0-2.8-0.4l-10.1-5.3c-1.3-0.7-2.8-0.7-4.1,0l-10.1,5.3
		c-2.2,1.1-4.8,0.3-6-1.8c-0.5-0.9-0.6-1.9-0.4-2.8l1.9-11.3c0.2-1.4-0.2-2.9-1.3-3.9l-8.2-8c-1.7-1.7-1.8-4.5-0.1-6.3
		c0.7-0.7,1.6-1.1,2.5-1.3l11.3-1.6c1.4-0.2,2.7-1.1,3.3-2.4l5.1-10.3c1.1-2.2,3.7-3.1,5.9-2C291.3,249.6,292,250.3,292.5,251.2z"/>
	<path class="st3" d="M363.1,251.2l5.1,10.3c0.6,1.3,1.9,2.2,3.3,2.4l11.3,1.6c2.4,0.4,4.1,2.6,3.7,5c-0.1,1-0.6,1.8-1.3,2.5l-8.2,8
		c-1,1-1.5,2.5-1.3,3.9l1.9,11.3c0.4,2.4-1.2,4.7-3.6,5.1c-1,0.2-2,0-2.8-0.4l-10.1-5.3c-1.3-0.7-2.8-0.7-4.1,0l-10.1,5.3
		c-2.2,1.1-4.8,0.3-6-1.9c-0.4-0.9-0.6-1.8-0.4-2.8l1.9-11.3c0.2-1.4-0.2-2.9-1.3-3.9l-8.2-8c-1.7-1.7-1.8-4.5-0.1-6.3
		c0.7-0.7,1.6-1.1,2.5-1.3l11.3-1.6c1.4-0.2,2.7-1.1,3.3-2.4l5.1-10.3c1.1-2.2,3.7-3.1,5.9-2C361.9,249.6,362.6,250.3,363.1,251.2z"
		/>
</g>
</svg>
