<svg xmlns="http://www.w3.org/2000/svg" viewBox="0 0 512 512"><defs><style>.cls-1,.cls-2{fill:#fff;}.cls-1,.cls-2,.cls-3,.cls-4,.cls-5{stroke:#3c3c3b;stroke-linecap:round;stroke-linejoin:round;stroke-width:6px;}.cls-2,.cls-4{fill-rule:evenodd;}.cls-3,.cls-4{fill:#80be70;}.cls-5{fill:none;}</style></defs><g id="Layer_1" data-name="Layer 1"><rect class="cls-1" x="86.37" y="195.11" width="59.06" height="28.68" rx="14.25"/><rect class="cls-1" x="334.2" y="195.11" width="59.06" height="28.68" rx="14.25"/><rect class="cls-1" x="131.32" y="230.76" width="38.2" height="63.8"/><path class="cls-2" d="M188.55,245.4a40,40,0,0,1-30.87,14.52H143.15a40.05,40.05,0,0,1-40.05-40.06V187.37a40,40,0,0,1,40.05-40.05h14.53a40.05,40.05,0,0,1,40.06,40.05v32.49"/><path class="cls-3" d="M143.53,278.18h13.77a52.18,52.18,0,0,1,52.18,52.18V373a14.09,14.09,0,0,1-14.09,14.09h-90A14.09,14.09,0,0,1,91.35,373V330.36A52.18,52.18,0,0,1,143.53,278.18Z"/><rect class="cls-1" x="309.87" y="230.76" width="38.2" height="63.8"/><path class="cls-2" d="M304.13,151.37a39.8,39.8,0,0,1,17.57-4.05h14.53a40,40,0,0,1,40,40.05v32.49a40.05,40.05,0,0,1-40,40.06H321.7a40.06,40.06,0,0,1-40.06-40.06V187.37"/><path class="cls-3" d="M322.08,278.18h13.77A52.18,52.18,0,0,1,388,330.36V373a14.09,14.09,0,0,1-14.09,14.09H284A14.09,14.09,0,0,1,269.9,373V330.36A52.18,52.18,0,0,1,322.08,278.18Z"/><rect class="cls-1" x="219.72" y="212.37" width="43.27" height="72.28"/><rect class="cls-1" x="172.13" y="177.76" width="138.44" height="28.96" rx="13.08"/><rect class="cls-1" x="187.75" y="117.83" width="107.22" height="127.57" rx="44.22"/><path class="cls-3" d="M226.62,266.09h29.47a52.18,52.18,0,0,1,52.18,52.18v57.16a14.09,14.09,0,0,1-14.09,14.09H188.53a14.09,14.09,0,0,1-14.09-14.09V318.27A52.18,52.18,0,0,1,226.62,266.09Z"/><path class="cls-2" d="M355.89,435.39H77.14a48.26,48.26,0,0,1-48.26-48.26h0a48.27,48.27,0,0,1,48.26-48.27H405.57a48.27,48.27,0,0,1,48.26,48.27h0a48.26,48.26,0,0,1-48.26,48.26H377.22"/><path class="cls-4" d="M105.6,364.48l5.07,10.27a4.44,4.44,0,0,0,3.34,2.42l11.34,1.65a4.43,4.43,0,0,1,2.45,7.55l-8.2,8a4.44,4.44,0,0,0-1.28,3.92l1.94,11.29a4.43,4.43,0,0,1-6.42,4.67l-10.15-5.33a4.42,4.42,0,0,0-4.12,0l-10.14,5.33A4.42,4.42,0,0,1,83,409.58l1.93-11.29a4.44,4.44,0,0,0-1.27-3.92l-8.21-8a4.43,4.43,0,0,1,2.46-7.55l11.34-1.65a4.41,4.41,0,0,0,3.33-2.42l5.07-10.27A4.43,4.43,0,0,1,105.6,364.48Z"/><path class="cls-4" d="M175.28,364.48l5.07,10.27a4.41,4.41,0,0,0,3.33,2.42L195,378.82a4.43,4.43,0,0,1,2.45,7.55l-8.2,8a4.44,4.44,0,0,0-1.27,3.92l1.93,11.29a4.42,4.42,0,0,1-6.42,4.67l-10.14-5.33a4.44,4.44,0,0,0-4.13,0l-10.14,5.33a4.42,4.42,0,0,1-6.42-4.67l1.93-11.29a4.44,4.44,0,0,0-1.27-3.92l-8.2-8a4.43,4.43,0,0,1,2.45-7.55l11.34-1.65a4.41,4.41,0,0,0,3.33-2.42l5.07-10.27A4.44,4.44,0,0,1,175.28,364.48Z"/><path class="cls-4" d="M246.36,364.48l5.07,10.27a4.42,4.42,0,0,0,3.33,2.42l11.34,1.65a4.42,4.42,0,0,1,2.46,7.55l-8.21,8a4.44,4.44,0,0,0-1.27,3.92L261,409.58a4.43,4.43,0,0,1-6.43,4.67l-10.14-5.33a4.42,4.42,0,0,0-4.12,0l-10.14,5.33a4.43,4.43,0,0,1-6.43-4.67l1.94-11.29a4.44,4.44,0,0,0-1.28-3.92l-8.2-8a4.43,4.43,0,0,1,2.45-7.55L230,377.17a4.44,4.44,0,0,0,3.34-2.42l5.07-10.27A4.43,4.43,0,0,1,246.36,364.48Z"/><path class="cls-4" d="M316.75,364.48l5.08,10.27a4.41,4.41,0,0,0,3.33,2.42l11.34,1.65a4.43,4.43,0,0,1,2.45,7.55l-8.2,8a4.44,4.44,0,0,0-1.28,3.92l1.94,11.29a4.43,4.43,0,0,1-6.42,4.67l-10.15-5.33a4.42,4.42,0,0,0-4.12,0l-10.14,5.33a4.42,4.42,0,0,1-6.42-4.67l1.93-11.29a4.44,4.44,0,0,0-1.27-3.92l-8.21-8a4.43,4.43,0,0,1,2.46-7.55l11.34-1.65a4.41,4.41,0,0,0,3.33-2.42l5.07-10.27A4.43,4.43,0,0,1,316.75,364.48Z"/><path class="cls-4" d="M387.37,364.48l5.07,10.27a4.41,4.41,0,0,0,3.33,2.42l11.34,1.65a4.43,4.43,0,0,1,2.46,7.55l-8.21,8a4.44,4.44,0,0,0-1.27,3.92L402,409.58a4.42,4.42,0,0,1-6.42,4.67l-10.14-5.33a4.42,4.42,0,0,0-4.12,0l-10.15,5.33a4.43,4.43,0,0,1-6.42-4.67l1.94-11.29a4.44,4.44,0,0,0-1.28-3.92l-8.2-8a4.43,4.43,0,0,1,2.45-7.55L371,377.17a4.44,4.44,0,0,0,3.34-2.42l5.07-10.27A4.43,4.43,0,0,1,387.37,364.48Z"/><line class="cls-5" x1="373.11" y1="104.04" x2="360.49" y2="116.66"/><line class="cls-5" x1="72.87" y1="235.8" x2="55.02" y2="235.8"/><line class="cls-5" x1="427.69" y1="235.8" x2="409.84" y2="235.8"/><line class="cls-5" x1="122.22" y1="116.66" x2="109.6" y2="104.04"/><line class="cls-5" x1="241.35" y1="67.31" x2="241.35" y2="49.46"/></g></svg>