<svg xmlns="http://www.w3.org/2000/svg" width="81.85" height="88.309" viewBox="0 0 81.85 88.309"><defs><style>.a{fill:#d8dcd7;}.b{fill:#80be70;}.c{fill:#6da55f;}.d{fill:#fff;}.e{fill:#aaefb8;}.f{fill:#3c3c3b;}</style></defs><path class="a" d="M8,132.34V175l36.945,21.33V153.643Zm0,0" transform="translate(-6.707 -109.514)"/><path class="b" d="M81.891,72.634l11.479,6.619L130.3,57.932l-11.472-6.623Zm0,0" transform="translate(-67.853 -42.459)"/><path class="c" d="M93.315,192.105V181.537l-11.472-6.615v10.647Zm0,0" transform="translate(-67.813 -144.752)"/><path class="d" d="M283.9,202.323l14.679-14.679,16.46,16.46-14.679,14.679Zm0,0" transform="translate(-235.018 -155.28)"/><path class="e" d="M351.7,248.791l-7.919-.848.366-3.412,4.036.433-.189-8.429,3.431-.077Zm0,0" transform="translate(-284.569 -195.673)"/><path class="b" d="M268.6,169.125l-3.214,3.214V183.8L268.581,187l14.679-14.68-3.194-3.193H268.6Zm4.9,8.13a2.9,2.9,0,1,1,0-4.106A2.9,2.9,0,0,1,273.5,177.255Zm0,0" transform="translate(-219.7 -139.954)"/><path class="b" d="M370.976,244.963l-.189-8.429.845-.019v-.058l-3.431.077.183,8.151Zm0,0" transform="translate(-304.779 -195.673)"/><path class="b" d="M346.364,286.678l.336-3.138-2.558-.274-.366,3.412,7.919.848-.006-.278Zm0,0" transform="translate(-284.569 -234.408)"/><path d="M278.834,199.081l16.509-16.508c-8.9-8.9-13.586-13.585-20.947-20.947h-3.749v2.587h2.678l1.9,1.9-12.85,12.85-1.9-1.9V166.669l2.456-2.456h.794v-2.587h-1.866l-3.971,3.972v12.537Zm-1.781-31.139,14.63,14.63-12.85,12.85-14.63-14.63Zm0,0" transform="translate(-213.493 -133.748)"/><path d="M345.855,228.789l-6.017.135.185,8.25-3.858-.414-.641,5.985,10.67,1.143Zm-7.483,11.659.09-.84,4.213.451-.193-8.607.844-.019.214,9.568Zm0,0" transform="translate(-277.739 -189.328)"/><path class="f" d="M74.39,64.739,40.033,84.575v-39.7l3.352-1.933L42.093,40.7,38.74,42.636,28.607,36.793l6.64-3.834a19.524,19.524,0,0,0,7.044,4.663l.9-2.427a16.674,16.674,0,0,1-5.617-3.578l13.51-7.8c1.946,3.332,2.861,7.91.257,10.514a5.13,5.13,0,0,1-1.659,1.1l1,2.386a7.718,7.718,0,0,0,2.488-1.661c3.53-3.53,2.709-9.253.152-13.637l9.629-5.558L73.1,22.825l-8.385,4.835L66,29.9l8.388-4.837v14.61h2.588v-17.6L38.74,0,.5,22.079V66.232L38.739,88.309,76.978,66.232V57.974H74.39v6.765ZM15.825,32.409l8.885,5.123v7.6l-8.885-5.062ZM26.017,35.3l-8.889-5.127L41.6,16.047A17.115,17.115,0,0,1,49.6,21.683Zm7.768-17.731a5.366,5.366,0,0,1,3.276-1.892Zm18.081,2.807a20.506,20.506,0,0,0-7.4-5.988l7.006-4.044,8.885,5.129ZM48.89,8.848l-7.667,4.427c-6.11-1.353-10.279,1.785-11.1,6.408l-15.584,9L4.383,22.825,38.74,2.987ZM3.088,25.065l10.149,5.852V41.569L27.3,49.58V39.024l10.149,5.853v39.7L3.088,64.739Zm0,0" transform="translate(-0.501 0)"/><path class="d" d="M75.263,391.066l-4.481-2.587,1.294-2.24,4.481,2.587Zm-5.975-3.45-2.241-1.294,1.294-2.24,2.241,1.294Zm-3.735-2.156-2.241-1.294,1.294-2.241,2.241,1.294Zm0,0" transform="translate(-52.479 -316.051)"/></svg>