<svg xmlns="http://www.w3.org/2000/svg" width="13.6" height="8.744" viewBox="0 0 13.6 8.744"><g transform="translate(0 -55.877)"><g transform="translate(0 55.877)"><path d="M13.493,60.079c-1.986-2.788-4.179-4.2-6.517-4.2-3.946,0-6.757,4.038-6.876,4.21a.573.573,0,0,0,.037.7c2.166,2.546,4.439,3.837,6.757,3.837,3.95,0,6.5-3.73,6.607-3.889A.573.573,0,0,0,13.493,60.079ZM6.8,63.015a2.765,2.765,0,1,1,2.765-2.765A2.765,2.765,0,0,1,6.8,63.015Z" transform="translate(0 -55.877)" fill="#fff"/></g></g></svg>