<svg xmlns="http://www.w3.org/2000/svg" width="14.723" height="9.712" viewBox="0 0 14.723 9.712"><path d="M7.362,110.819a2.275,2.275,0,0,1-1.6-3.893l-2.212-1.571h0l-1.512-1.074a.759.759,0,1,0-.879,1.237l1.048.745-.011.009a13.546,13.546,0,0,0-2.109,2.033.379.379,0,0,0,0,.472,13.549,13.549,0,0,0,2.109,2.033,8.6,8.6,0,0,0,5.17,2.05,7.25,7.25,0,0,0,3.078-.745l2.251,1.6a.759.759,0,1,0,.879-1.237l-1.682-1.195h0l-2.473-1.757A2.28,2.28,0,0,1,7.362,110.819Z" transform="translate(0 -104.142)" fill="#fff"/><path d="M222.972,112.078a.379.379,0,0,0,0-.472,13.55,13.55,0,0,0-2.109-2.033,8.6,8.6,0,0,0-5.17-2.05,6.787,6.787,0,0,0-2.226.4l8.005,5.686A12.946,12.946,0,0,0,222.972,112.078Z" transform="translate(-208.332 -107.443)" fill="#fff"/></svg>