<svg xmlns="http://www.w3.org/2000/svg" viewBox="0 0 512 512"><defs><style>.cls-1,.cls-2{fill:#80be70;}.cls-1,.cls-2,.cls-3,.cls-4{stroke:#3c3c3b;stroke-linecap:round;stroke-linejoin:round;stroke-width:6px;}.cls-1,.cls-3{fill-rule:evenodd;}.cls-3{fill:#fff;}.cls-4{fill:#d8dcd7;}</style></defs><g id="Layer_1" data-name="Layer 1"><polyline class="cls-1" points="341.69 430.78 341.69 443.26 94.66 443.26 94.66 124.83 345.44 124.83"/><line class="cls-2" x1="297.63" y1="124.84" x2="339.6" y2="124.84"/><polyline class="cls-3" points="328.19 96.79 370.16 96.79 370.16 415.21 123.13 415.21 123.13 96.79 299.21 96.79"/><rect class="cls-4" x="161.28" y="147.09" width="44.14" height="44.14"/><rect class="cls-4" x="161.28" y="220.36" width="44.14" height="44.14"/><rect class="cls-4" x="161.28" y="293.63" width="44.14" height="44.14"/><line class="cls-4" x1="237.2" y1="157.54" x2="318.61" y2="157.54"/><line class="cls-4" x1="237.2" y1="177.61" x2="318.61" y2="177.61"/><line class="cls-4" x1="237.2" y1="232.39" x2="318.61" y2="232.39"/><line class="cls-4" x1="237.2" y1="252.46" x2="318.61" y2="252.46"/><line class="cls-4" x1="237.2" y1="307.25" x2="318.61" y2="307.25"/><line class="cls-4" x1="237.2" y1="327.32" x2="318.61" y2="327.32"/><path class="cls-1" d="M460.19,169.55,453,185.91l-44-19.44,7.23-16.36c4.64-10.48,15.41-15.88,24.08-12l12.61,5.57C461.56,147.47,464.82,159.07,460.19,169.55Z"/><polygon class="cls-3" points="452.95 185.91 370.87 371.58 335.19 392.82 326.88 352.14 408.97 166.47 452.95 185.91"/><rect class="cls-4" x="407.9" y="167.17" width="32.85" height="48.09" transform="translate(77.86 501.98) rotate(-66.15)"/><line class="cls-4" x1="326.88" y1="352.14" x2="370.87" y2="371.58"/><line class="cls-4" x1="417.68" y1="206.24" x2="348.88" y2="361.86"/><line class="cls-2" x1="87.1" y1="78.22" x2="63.31" y2="54.43"/><line class="cls-2" x1="77.2" y1="112.88" x2="43.55" y2="112.88"/><line class="cls-2" x1="118.71" y1="67.74" x2="118.71" y2="34.1"/></g></svg>