<svg xmlns="http://www.w3.org/2000/svg" width="30.668" height="17.887" viewBox="0 0 30.668 17.887"><defs><style>.a{fill:#458a33;}</style></defs><path class="a" d="M28.708,104.73c-.1-.02-.187-.039-.268-.06-.916-.238-1.335-.369-1.644-.966l-1.171-2.372a2.681,2.681,0,0,0-2.167-1.318H21.372V97.276a.893.893,0,0,0-.892-.892L5.954,96.4a.844.844,0,0,0-.839.885v.809H1.394a1.394,1.394,0,0,0,0,2.787H5.115v1.336H2.678a1.394,1.394,0,0,0,0,2.787H5.115v1.336H3.963a1.394,1.394,0,0,0,0,2.787H5.115v1.4a.893.893,0,0,0,.892.892H7.517a3.34,3.34,0,0,0,6.609,0h6.115c.032,0,.064,0,.1,0a3.34,3.34,0,0,0,6.61,0h2.17a1.551,1.551,0,0,0,1.549-1.549v-2.629C30.668,105.142,29.488,104.894,28.708,104.73Zm-5.064,4.986a1.214,1.214,0,1,1-1.214,1.214A1.216,1.216,0,0,1,23.644,109.717Zm-2.272-5.175v-3.234h1.594a2.072,2.072,0,0,1,1.649,1l1.042,2.11q.033.064.069.122H21.372Zm-9.335,6.389a1.214,1.214,0,1,1-1.215-1.214A1.216,1.216,0,0,1,12.036,110.931Z" transform="translate(0 -96.384)"/></svg>