<svg xmlns="http://www.w3.org/2000/svg" width="22.059" height="25.559" viewBox="0 0 22.059 25.559"><g transform="translate(-5.023 -2)"><path d="M16.047,2a8.713,8.713,0,0,0-8.713,8.713v6.8L5.4,20.414a2.37,2.37,0,0,0,1.969,3.66H24.72A2.37,2.37,0,0,0,26.689,20.4L24.76,17.51v-6.8A8.713,8.713,0,0,0,16.047,2Z" transform="translate(0)" fill="#3c3c3b"/><path d="M21.632,44.324A3.485,3.485,0,0,0,24.914,42H18.35A3.485,3.485,0,0,0,21.632,44.324Z" transform="translate(-5.585 -16.764)" fill="#3c3c3b"/></g></svg>