<?xml version="1.0" encoding="utf-8"?>
<!-- Generator: Adobe Illustrator 25.0.1, SVG Export Plug-In . SVG Version: 6.00 Build 0)  -->
<svg version="1.1" id="Ebene_1" xmlns="http://www.w3.org/2000/svg" xmlns:xlink="http://www.w3.org/1999/xlink" x="0px" y="0px"
	 viewBox="0 0 387.2 463.4" style="enable-background:new 0 0 387.2 463.4;" xml:space="preserve">
<style type="text/css">
	.st0{fill:none;stroke:#3C3C3B;stroke-width:6;stroke-linecap:round;stroke-linejoin:round;}
	.st1{fill:#80BE70;stroke:#3C3C3B;stroke-width:6;stroke-linecap:round;stroke-linejoin:round;}
	.st2{fill:#FFFFFF;stroke:#3C3C3B;stroke-width:6;stroke-linecap:round;stroke-linejoin:round;}
	
		.st3{fill-rule:evenodd;clip-rule:evenodd;fill:#D8DCD7;stroke:#3C3C3B;stroke-width:6;stroke-linecap:round;stroke-linejoin:round;}
</style>
<g id="Layer_1">
	<path class="st0" d="M186.4,48.3C287.8,48.4,370,130.6,369.9,232c0,12.3-1.3,24.6-3.7,36.7"/>
	<path class="st0" d="M223.8,411.4c-99.3,20.6-196.4-43.3-217-142.6C4.3,256.6,3,244.2,3,231.7"/>
	<circle class="st1" cx="186.4" cy="231.7" r="145.5"/>
	<circle class="st2" cx="186.4" cy="231.7" r="102.9"/>
	<circle class="st1" cx="186.4" cy="231.7" r="64.5"/>
	<circle class="st2" cx="186.4" cy="233.9" r="29.1"/>
	<polygon class="st3" points="371.6,313.8 217,262.3 268.6,416.9 287.2,361.1 355.6,429.5 384.2,400.8 315.8,332.5 	"/>
	<line class="st0" x1="186.4" y1="24.9" x2="186.4" y2="3"/>
	<line class="st0" x1="186.4" y1="460.4" x2="186.4" y2="438.5"/>
	<line class="st0" x1="40.2" y1="378" x2="24.7" y2="393.5"/>
	<line class="st0" x1="348.2" y1="70" x2="332.7" y2="85.5"/>
	<line class="st0" x1="40.2" y1="85.5" x2="24.7" y2="70"/>
</g>
</svg>
