<svg xmlns="http://www.w3.org/2000/svg" viewBox="0 0 512 512"><defs><style>.cls-1,.cls-5{fill:none;}.cls-1,.cls-2,.cls-3,.cls-4,.cls-5{stroke:#3c3c3b;stroke-linecap:round;stroke-linejoin:round;stroke-width:6px;}.cls-1,.cls-4{fill-rule:evenodd;}.cls-2{fill:#80be70;}.cls-3{fill:#fff;}.cls-4{fill:#d8dcd7;}</style></defs><g id="Layer_1" data-name="Layer 1"><path class="cls-1" d="M256,72.56A183.59,183.59,0,0,1,435.71,293"/><path class="cls-1" d="M293.36,435.63A183.59,183.59,0,0,1,72.56,256"/><circle class="cls-2" cx="256" cy="256" r="145.48"/><circle class="cls-3" cx="256" cy="256" r="102.92"/><circle class="cls-2" cx="256" cy="256" r="64.46"/><circle class="cls-3" cx="256" cy="258.17" r="29.09"/><polygon class="cls-4" points="441.21 338.12 286.57 286.57 338.12 441.21 356.73 385.37 425.12 453.76 453.76 425.12 385.37 356.73 441.21 338.12"/><line class="cls-5" x1="256" y1="49.2" x2="256" y2="27.28"/><line class="cls-5" x1="256" y1="484.72" x2="256" y2="462.8"/><line class="cls-5" x1="109.77" y1="402.23" x2="94.27" y2="417.73"/><line class="cls-5" x1="417.73" y1="94.27" x2="402.23" y2="109.77"/><line class="cls-5" x1="109.77" y1="109.77" x2="94.27" y2="94.27"/></g></svg>