<svg xmlns="http://www.w3.org/2000/svg" width="26.002" height="26.002" viewBox="0 0 26.002 26.002"><g transform="translate(-0.001)"><g transform="translate(0.001)"><path d="M13,0A13,13,0,1,0,26,13,13,13,0,0,0,13,0Zm6.18,9.356-1.235,1.235L15.434,8.077l-.954.954,2.514,2.514-6.165,6.165L8.315,15.2l-.954.954,2.513,2.513-.614.614-.012-.012a.486.486,0,0,1-.31.223l-2.344.523a.487.487,0,0,1-.581-.582l.522-2.343a.488.488,0,0,1,.223-.31l-.012-.012,9.922-9.922a.373.373,0,0,1,.527,0l1.987,1.986A.373.373,0,0,1,19.182,9.356Z" transform="translate(-0.001)" fill="#4bc2d5"/></g></g></svg>