<svg xmlns="http://www.w3.org/2000/svg" width="11.413" height="11.401" viewBox="0 0 11.413 11.401"><g transform="translate(0 -0.246)"><path d="M7.048,82.473l-6.28,6.28a.25.25,0,0,0-.065.115l-.7,2.794a.247.247,0,0,0,.24.307.246.246,0,0,0,.06-.007l2.794-.7a.247.247,0,0,0,.115-.065L9.5,84.92Zm0,0" transform="translate(0 -80.321)" fill="#fff"/><path d="M337.632,1.3l-.7-.7a1.266,1.266,0,0,0-1.748,0l-.856.856L336.775,3.9l.856-.856a1.236,1.236,0,0,0,0-1.748Zm0,0" transform="translate(-326.581 0)" fill="#fff"/></g></svg>