<svg xmlns="http://www.w3.org/2000/svg" width="74.001" height="74.001" viewBox="0 0 74.001 74.001"><defs><style>.a{fill:#d8dcd7;}.b{fill:#80be70;}</style></defs><path class="a" d="M4315.775,14285.972a14.3,14.3,0,0,0,2.579,6.162,20.312,20.312,0,0,0,5.875,4.585l2.723-2.579s2.722-.144,5.3,0,4.012,1.861,5.015,2.579,8.6,0,8.6,0a7.82,7.82,0,0,0,3.726-4.585c.827-2.716-1.1-12.127-1.719-21.78-.112-1.748,2.907-4.606,2.58-6.448-1.863-10.46-3.01-12.609-8.168-15.905s-12.323-5.731-18.055-2.723-10.317,6.877-11.177,10.6-1.719,7.595-1.719,8.024S4315.775,14285.972,4315.775,14285.972Z" transform="translate(-4290.791 -14233.474)"/><path d="M63.929,28.646V26.929a26.928,26.928,0,1,0-53.855,0v1.718a13.9,13.9,0,0,0,3.8,27.266,6.48,6.48,0,0,0,6.491-6.479V34.6a6.475,6.475,0,0,0-5.936-6.457V26.929a22.575,22.575,0,0,1,45.149,0v1.212A6.474,6.474,0,0,0,53.64,34.6V49.433a6.477,6.477,0,0,0,5.936,6.455,9.8,9.8,0,0,1-9.787,9.988H45.051A5.957,5.957,0,0,0,39.516,62.1h-5.03a5.949,5.949,0,0,0,0,11.9h5.03a5.957,5.957,0,0,0,5.535-3.773h4.738a14.157,14.157,0,0,0,14.14-14.141v-.714a13.9,13.9,0,0,0,0-26.728ZM16.01,34.6V49.433A2.136,2.136,0,0,1,13.7,51.558,9.544,9.544,0,0,1,13.9,32.472h.037A2.109,2.109,0,0,1,16.01,34.6ZM39.516,69.649h-5.03a1.6,1.6,0,0,1,0-3.192h5.03a1.6,1.6,0,0,1,0,3.192Zm30.118-27.1A9.568,9.568,0,0,1,60.3,51.558a2.138,2.138,0,0,1-2.306-2.125V34.6a2.107,2.107,0,0,1,2.067-2.126h.045A9.537,9.537,0,0,1,69.634,42.546Z" transform="translate(-0.001 -0.001)"/><path class="b" d="M174.424,232.671l10.05-10.05a8.015,8.015,0,1,0-11.589-11.069A8.015,8.015,0,1,0,161.3,222.621l10.05,10.05A2.176,2.176,0,0,0,174.424,232.671Z" transform="translate(-135.884 -178.628)"/></svg>