<svg xmlns="http://www.w3.org/2000/svg" viewBox="0 0 512 512"><defs><style>.cls-1,.cls-3{fill:#d8dcd7;}.cls-1,.cls-2,.cls-3,.cls-4,.cls-5,.cls-6{stroke:#3c3c3b;stroke-linecap:round;stroke-linejoin:round;stroke-width:6px;}.cls-1,.cls-2,.cls-6{fill-rule:evenodd;}.cls-2,.cls-4{fill:#80be70;}.cls-5,.cls-6{fill:#fff;}</style></defs><g id="Layer_1" data-name="Layer 1"><path class="cls-1" d="M326,133.18a19.67,19.67,0,0,0-17.09-9.93H203.1A19.67,19.67,0,0,0,186,133.18L137.62,218H374.38Z"/><path class="cls-2" d="M381.39,432.35H69a15.66,15.66,0,0,1-15.66-15.66v-234A15.66,15.66,0,0,1,69,167H443a15.66,15.66,0,0,1,15.66,15.65v234A15.66,15.66,0,0,1,443,432.35H415.48"/><rect class="cls-3" x="53.32" y="218.01" width="405.36" height="174.85"/><circle class="cls-4" cx="256" cy="299.68" r="110.8"/><circle class="cls-5" cx="256" cy="299.68" r="85.82"/><path class="cls-6" d="M318.7,299.68a59.62,59.62,0,0,1-59.62,59.62"/><path class="cls-1" d="M95.19,167.38h42.89a7.12,7.12,0,0,0,7.12-7.12V155.2a7.13,7.13,0,0,0-7.12-7.13H102.32a7.13,7.13,0,0,0-7.13,7.13h0"/><rect class="cls-5" x="371.73" y="148.07" width="51.14" height="18.94"/><line class="cls-4" x1="374.38" y1="197.96" x2="427.51" y2="197.96"/><line class="cls-4" x1="256.98" y1="83.42" x2="256.98" y2="45.65"/><line class="cls-4" x1="221.6" y1="103.07" x2="194.9" y2="76.36"/><line class="cls-4" x1="290.4" y1="100.2" x2="317.1" y2="73.49"/></g></svg>