<svg xmlns="http://www.w3.org/2000/svg" width="64.521" height="87.625" viewBox="0 0 64.521 87.625"><defs><style>.a{fill:#80be70;}.b{fill:#3c3c3b;}.c{fill:#d8dcd7;}.c,.d{fill-rule:evenodd;}.d{fill:#fff;}</style></defs><g transform="translate(-144 -828)"><g transform="translate(144 828)"><path class="a" d="M597.9,1092.6l-5.756-11.259-11.335,5.6,10.292-31.1,17.091,5.655L597.9,1092.6Z" transform="translate(-579.719 -1006.069)"/><g transform="translate(0 54.34)"><path class="b" d="M591.929,1118.707a1.09,1.09,0,0,1-.97-.594l-5.267-10.3-10.371,5.128a1.09,1.09,0,0,1-1.517-1.319l5.967-18.034a1.089,1.089,0,0,1,2.068.684l-5.149,15.561,9-4.45a1.089,1.089,0,0,1,1.453.481l4.57,8.94,9.473-28.632a1.089,1.089,0,0,1,2.068.685l-10.292,31.1a1.09,1.09,0,0,1-.951.745C591.985,1118.706,591.957,1118.707,591.929,1118.707Z" transform="translate(-573.749 -1085.422)"/></g><path class="a" d="M817.62,1092.6l5.755-11.259,11.335,5.6-10.293-31.1-17.091,5.655,10.293,31.1Z" transform="translate(-771.278 -1006.069)"/><g transform="translate(34.959 54.34)"><path class="b" d="M811.651,1118.706c-.028,0-.056,0-.084,0a1.089,1.089,0,0,1-.951-.744l-10.293-31.105a1.089,1.089,0,1,1,2.068-.684l9.475,28.631,4.569-8.94a1.09,1.09,0,0,1,1.453-.481l9,4.45-5.6-16.916a1.089,1.089,0,1,1,2.068-.684l6.416,19.389a1.09,1.09,0,0,1-1.517,1.319l-10.371-5.128-5.266,10.3A1.089,1.089,0,0,1,811.651,1118.706Z" transform="translate(-800.267 -1085.422)"/></g><path class="c" d="M618.057,740.381a30.062,30.062,0,1,1-30.062,30.062,30.077,30.077,0,0,1,30.062-30.062Z" transform="translate(-585.796 -739.292)"/><g transform="translate(1.109)"><path class="b" d="M597.129,791.64a1.084,1.084,0,0,1-.542-.145,31.185,31.185,0,0,1-14.546-35.261,1.09,1.09,0,0,1,2.1.576,29,29,0,0,0,13.531,32.8,1.09,1.09,0,0,1-.544,2.034Zm31.8-1.18a1.089,1.089,0,0,1-.612-1.991,28.969,28.969,0,1,0-36.461-44.73,1.089,1.089,0,1,1-1.521-1.56,31.148,31.148,0,1,1,39.205,48.093A1.081,1.081,0,0,1,628.934,790.46Z" transform="translate(-580.937 -733.322)"/></g><path class="d" d="M656.189,785.477a23.1,23.1,0,1,1-23.1,23.1,23.113,23.113,0,0,1,23.1-23.1Z" transform="translate(-623.929 -777.428)"/><path class="a" d="M695.8,825.825l4.905,9.939,10.97,1.594-7.937,7.736,1.873,10.925-9.81-5.158-9.81,5.158,1.874-10.925-7.937-7.736,10.968-1.594,4.905-9.939Z" transform="translate(-663.542 -811.549)"/></g></g></svg>