<svg xmlns="http://www.w3.org/2000/svg" width="39" height="39" viewBox="0 0 39 39"><g transform="translate(-690 -220)"><circle cx="19.5" cy="19.5" r="19.5" transform="translate(690 220)" fill="#fff"/><g transform="translate(694 239.311) rotate(-45)"><path d="M21.66,4.156a12.017,12.017,0,0,1-1.5,5.783.643.643,0,0,1-1.1-.668,10.9,10.9,0,0,0,1.308-5.115A2.643,2.643,0,0,0,17.8,1.286a2.574,2.574,0,0,0-2.572,2.573,20.338,20.338,0,0,0,.4,2.681.643.643,0,0,1-1.259.263,21.139,21.139,0,0,1-.433-2.944A3.863,3.863,0,0,1,17.8,0,3.927,3.927,0,0,1,21.66,4.156ZM17.912,5.168c.256,2.137.626,6.3.2,6.724L8.769,21.236a1.471,1.471,0,0,1-2.082,0L.44,14.988a1.472,1.472,0,0,1,0-2.082L9.783,3.563a13.923,13.923,0,0,1,3.582-.06c-.01.12-.036.233-.036.355a12.727,12.727,0,0,0,.211,1.824,1.768,1.768,0,1,0,2.473-.461,10.777,10.777,0,0,1-.169-1.363c0-.057.012-.11.017-.166.224.023.444.048.653.074C17.748,3.918,17.761,3.915,17.912,5.168Zm-4.98,6.992a4.028,4.028,0,0,0-.91-1.443l.709-.71-.79-.789-.765.766a2.091,2.091,0,0,0-2.8.072c-.781.781-.6,1.773-.023,2.925.394.8.466,1.257.16,1.563s-.821.178-1.282-.282a4.021,4.021,0,0,1-.982-1.693l-1.185.7A4.618,4.618,0,0,0,6.1,14.98l-.773.774.789.79.831-.83a2.166,2.166,0,0,0,2.917-.048c.733-.735.8-1.557.169-2.862-.436-.935-.541-1.395-.282-1.652.226-.226.629-.291,1.153.233a3.544,3.544,0,0,1,.878,1.443Z" transform="translate(-0.008)" fill="#f8cc1f"/></g></g></svg>