<svg xmlns="http://www.w3.org/2000/svg" width="20" height="20" viewBox="0 0 20 20"><g transform="translate(-5.107 -1)"><path d="M15.107,1C12.065,1,9.6,2.791,9.6,5v.667H8.837c-1.606,0-2.928.915-3,2.08L5.11,18.713a1.893,1.893,0,0,0,.829,1.609A3.635,3.635,0,0,0,8.112,21H22.1a3.635,3.635,0,0,0,2.173-.678,1.893,1.893,0,0,0,.829-1.609L24.378,7.747c-.074-1.165-1.4-2.081-3-2.08h-.762V5c0-2.209-2.466-4-5.508-4ZM11.435,5c0-1.473,1.644-2.667,3.672-2.667S18.778,3.527,18.778,5v.667H11.435Z" fill="#7c817b"/></g></svg>