<svg xmlns="http://www.w3.org/2000/svg" width="70.847" height="88.175" viewBox="0 0 70.847 88.175"><defs><style>.a{fill:#d8dcd7;}.b{fill:#3c3c3b;}.c{fill:#80be70;}.d{fill:#fff;}</style></defs><path class="a" d="M1835.3,808.874s11.5,0,22.953-14.825c9.642-12.484,11.385-30.13,11.385-57.741-22.833-1.416-34.337-13.452-34.337-13.452h0s-11.5,12.036-34.335,13.452c0,27.611,1.742,45.257,11.384,57.741,11.449,14.825,22.953,14.825,22.953,14.825Z" transform="translate(-1799.878 -721.785)"/><path class="b" d="M1829.329,804.072c-.491,0-12.173-.173-23.813-15.247-7.068-9.151-10.335-21.086-11.276-41.2a1.086,1.086,0,0,1,2.17-.1c.918,19.624,4.054,31.2,10.824,39.969,10.939,14.165,21.986,14.4,22.1,14.4a20.978,20.978,0,0,0,8.219-2.447,1.086,1.086,0,0,1,.969,1.945A22.569,22.569,0,0,1,1829.329,804.072Zm22.952-14.825a1.086,1.086,0,0,1-.859-1.75c9.265-12,11.114-29.006,11.157-56.064-19.306-1.476-30.326-10.291-33.255-12.964-3,2.71-14.471,11.807-34.265,13.035a1.086,1.086,0,0,1-.134-2.168c22.094-1.371,33.506-13,33.619-13.119a1.124,1.124,0,0,1,1.566,0c.465.48,11.647,11.759,33.624,13.122a1.086,1.086,0,0,1,1.019,1.084c0,28.128-1.85,45.767-11.611,58.405A1.085,1.085,0,0,1,1852.281,789.248Z" transform="translate(-1793.906 -715.897)"/><path class="c" d="M1879.261,857.09c-.847-.1-8.5-1.263-16.573-11.723-7.405-9.589-9.372-23.76-9.677-45.771a64.957,64.957,0,0,0,26.294-10.334,64.149,64.149,0,0,0,26.36,10.343c-.3,22.006-2.272,36.174-9.677,45.763-8.1,10.488-15.6,11.611-16.727,11.723Z" transform="translate(-1843.916 -777.971)"/><path class="d" d="M1872.516,862.057c-4.92-9.371-6.367-22.378-6.625-40.993a64.957,64.957,0,0,0,26.294-10.335,63.612,63.612,0,0,0,24.326,9.981c-.442,20.339-2.556,33.667-9.625,42.821-8.1,10.488-15.6,11.611-16.727,11.723-.847-.1-8.5-1.263-16.573-11.723q-.555-.719-1.07-1.474Z" transform="translate(-1854.813 -796.136)"/><g transform="translate(21.959 30.194)"><path class="c" d="M192.685,27.873a13.936,13.936,0,1,0-13.936-13.936A13.951,13.951,0,0,0,192.685,27.873Zm-1.65-22.128V5.366a1.65,1.65,0,0,1,3.3,0v.381a4.364,4.364,0,0,1,3.442,4.259,1.65,1.65,0,0,1-3.3,0A1.058,1.058,0,0,0,193.42,8.95h-1.48a1.056,1.056,0,0,0-.628,1.9l1.373,1.017,3.336,2.469a4.375,4.375,0,0,1,1.765,3.473v.015a4.36,4.36,0,0,1-3.451,4.292v.386a1.65,1.65,0,0,1-3.3,0v-.381a4.357,4.357,0,0,1-3.44-4.233,1.65,1.65,0,0,1,1.639-1.66h.011a1.651,1.651,0,0,1,1.65,1.641,1.054,1.054,0,0,0,1.062,1.05l1.478-.009a1.055,1.055,0,0,0,1.05-1.064v-.015a1.06,1.06,0,0,0-.428-.842l-1.372-1.016-3.337-2.469a4.357,4.357,0,0,1,1.687-7.764Z" transform="translate(-178.749)"/></g></svg>