<svg xmlns="http://www.w3.org/2000/svg" width="21.286" height="20" viewBox="0 0 21.286 20"><g transform="translate(0 -15.469)"><path d="M37.478,20.388a.628.628,0,0,0-.347-.306L32.516,18.4a1.872,1.872,0,0,0-3.346-1.218l-4.609-1.677h0a.629.629,0,0,0-.77.306l-2.921,5.8h1.4l2.084-4.139,2.11,4.139h1.4l-2.238-4.392,3.151,1.147A1.869,1.869,0,0,0,30.022,20.1V32.214a.624.624,0,1,0,1.247,0V20.1a1.859,1.859,0,0,0,.791-.539l3.989,1.452L33.423,26.23h1.4l2.1-4.175,2.1,4.175h1.4Zm-6.391-1.61a.626.626,0,1,1,0-.885A.626.626,0,0,1,31.088,18.778Z" transform="translate(-20.002 0)" fill="#3c3c3b"/><path d="M165.732,404.243h-1.469a3.217,3.217,0,0,0-3.213,3.213.624.624,0,0,0,.624.624h6.648a.624.624,0,0,0,.624-.624A3.217,3.217,0,0,0,165.732,404.243Z" transform="translate(-154.354 -372.611)" fill="#3c3c3b"/><path d="M310.059,304.3h-7.486a.624.624,0,0,0-.624.624,4.366,4.366,0,0,0,8.733,0A.624.624,0,0,0,310.059,304.3Z" transform="translate(-289.396 -276.822)" fill="#3c3c3b"/><path d="M8.111,193.205H.624a.624.624,0,0,0-.624.624,4.367,4.367,0,1,0,8.735,0A.624.624,0,0,0,8.111,193.205Z" transform="translate(0 -170.347)" fill="#3c3c3b"/></g></svg>