<svg xmlns="http://www.w3.org/2000/svg" viewBox="0 0 512 512"><defs><style>.cls-1{fill:#d8dcd7;}.cls-1,.cls-2,.cls-3,.cls-4{stroke:#3c3c3b;stroke-linecap:round;stroke-linejoin:round;stroke-width:6px;}.cls-1,.cls-3{fill-rule:evenodd;}.cls-2{fill:#80be70;}.cls-3{fill:#fff;}.cls-4{fill:none;}</style></defs><g id="Layer_1" data-name="Layer 1"><polyline class="cls-1" points="210.87 229.4 233.23 207.04 409.93 383.74 387.56 406.1 329.99 348.53"/><circle class="cls-2" cx="228.4" cy="224.58" r="143.57"/><path class="cls-3" d="M309,144a113.91,113.91,0,1,1-161.09,0A113.91,113.91,0,0,1,309,144Z"/><path class="cls-3" d="M291.87,167.77a85,85,0,0,1,0,120.28"/><path class="cls-1" d="M460,418.57l8.5,8.5c2.74,2.74,2.74,11.43-2.61,16.78l-18.24,18.24a13.71,13.71,0,0,1-19.4,0l-87.6-87.6a13.73,13.73,0,0,1,0-19.4l18.24-18.23a13.71,13.71,0,0,1,19.4,0l70.56,70.56"/><line class="cls-2" x1="348.82" y1="382.63" x2="357.94" y2="373.51"/><line class="cls-2" x1="367.64" y1="363.81" x2="386.45" y2="344.99"/><line class="cls-4" x1="109.27" y1="343.71" x2="96.64" y2="356.33"/><line class="cls-4" x1="360.16" y1="92.82" x2="347.54" y2="105.44"/><line class="cls-4" x1="59.92" y1="224.58" x2="42.07" y2="224.58"/><line class="cls-4" x1="414.74" y1="224.58" x2="396.89" y2="224.58"/><line class="cls-4" x1="109.27" y1="105.44" x2="96.64" y2="92.82"/><line class="cls-4" x1="228.4" y1="56.09" x2="228.4" y2="38.24"/><line class="cls-4" x1="228.4" y1="410.91" x2="228.4" y2="393.06"/></g></svg>