<svg xmlns="http://www.w3.org/2000/svg" width="20.505" height="25.054" viewBox="0 0 20.505 25.054"><defs><style>.a{fill:#458a33;}</style></defs><g transform="translate(-32.499 0.001)"><path class="a" d="M135.2,131.556a.88.88,0,0,0-.618-.254.868.868,0,0,0-.618.254l-3.062,3.062-1.057-1.058a.875.875,0,0,0-1.236,1.238l1.676,1.676a.868.868,0,0,0,.618.253h0a.869.869,0,0,0,.619-.254l3.68-3.68A.876.876,0,0,0,135.2,131.556Z" transform="translate(-89.145 -122.115)"/><path class="a" d="M52.962,5.163a.455.455,0,0,0-.254-.37L42.95.045a.455.455,0,0,0-.4,0L32.794,4.793a.455.455,0,0,0-.254.37,25.126,25.126,0,0,0,.786,7.721,20.7,20.7,0,0,0,2.906,6.544A17.12,17.12,0,0,0,42.542,25a.455.455,0,0,0,.419,0,17.12,17.12,0,0,0,6.31-5.574,20.693,20.693,0,0,0,2.906-6.544A25.128,25.128,0,0,0,52.962,5.163ZM42.751,17.611a5.785,5.785,0,1,1,5.785-5.785A5.791,5.791,0,0,1,42.751,17.611Z"/></g></svg>