<?xml version="1.0" encoding="utf-8"?>
<!-- Generator: Adobe Illustrator 25.0.1, SVG Export Plug-In . SVG Version: 6.00 Build 0)  -->
<svg version="1.1" id="Ebene_1" xmlns="http://www.w3.org/2000/svg" xmlns:xlink="http://www.w3.org/1999/xlink" x="0px" y="0px"
	 viewBox="0 0 451 386.1" style="enable-background:new 0 0 451 386.1;" xml:space="preserve">
<style type="text/css">
	
		.st0{fill-rule:evenodd;clip-rule:evenodd;fill:#FFFFFF;stroke:#3C3C3B;stroke-width:6;stroke-linecap:round;stroke-linejoin:round;}
	.st1{fill:#80BE70;stroke:#3C3C3B;stroke-width:6;stroke-linecap:round;stroke-linejoin:round;}
	.st2{fill:#FFFFFF;stroke:#3C3C3B;stroke-width:6;stroke-linecap:round;stroke-linejoin:round;}
	.st3{fill:none;stroke:#3C3C3B;stroke-width:6;stroke-linecap:round;stroke-linejoin:round;}
	.st4{fill:#D8DCD7;stroke:#3C3C3B;stroke-width:6;stroke-linecap:round;stroke-linejoin:round;}
	
		.st5{fill-rule:evenodd;clip-rule:evenodd;fill:#80BE70;stroke:#3C3C3B;stroke-width:6;stroke-linecap:round;stroke-linejoin:round;}
</style>
<g id="Layer_1">
	<path class="st0" d="M100.2,49.1h279.9c37.5,0,67.8,30.4,67.8,67.8v266.2H35.8C17.7,383.1,3,368.4,3,350.3l0,0"/>
	<circle class="st1" cx="362.2" cy="264.9" r="70.4"/>
	<circle class="st2" cx="362.2" cy="264.4" r="52.4"/>
	<circle class="st1" cx="154.6" cy="264.9" r="70.4"/>
	<circle class="st2" cx="154.6" cy="264.4" r="52.4"/>
	<polygon class="st3" points="150.1,264.4 259.2,264.4 210.6,170.7 	"/>
	<polygon class="st3" points="259.2,264.4 314.9,170.7 210.6,170.7 	"/>
	<line class="st3" x1="362.2" y1="264.4" x2="314.9" y2="170.7"/>
	<circle class="st4" cx="259.2" cy="264.4" r="15"/>
	<path class="st3" d="M309.8,179.3l16.7-27.4c5.4-8.8,14.6-14.6,24.8-15.6l0,0c7.5-0.8,14.2,4.7,15,12.3c0,0.5,0.1,0.9,0.1,1.4v7.1
		c0,7.6-6.1,13.7-13.7,13.7l0,0l0,0"/>
	<line class="st3" x1="196.8" y1="138.2" x2="210.7" y2="170.7"/>
	<path class="st1" d="M183.1,126.1h23.7c7.4,0,13.3,6,13.3,13.3v2.2l0,0h-46.7l0,0v-5.8C173.4,130.4,177.8,126.1,183.1,126.1
		C183.1,126.1,183.1,126.1,183.1,126.1z"/>
	<path class="st5" d="M3,58.6V35.8C3,17.7,17.7,3,35.8,3c18.1,0,32.8,14.7,32.8,32.8c0,0,0,0,0,0v314.5c0,18.1-14.7,32.8-32.8,32.8
		C17.7,383,3,368.4,3,350.3V89.1"/>
	<line class="st3" x1="154" y1="107.4" x2="132.7" y2="86.1"/>
	<line class="st3" x1="145.1" y1="138.4" x2="115" y2="138.4"/>
	<line class="st3" x1="182.3" y1="98" x2="182.3" y2="67.9"/>
	<path class="st0" d="M68.6,350.3c0,7-2.3,13.9-6.5,19.5c-1.9,2.6-4.3,4.9-6.9,6.8c-14.6,10.8-35.1,7.7-45.9-6.9s-7.7-35.1,6.9-45.9
		c14.6-10.8,35.1-7.7,45.9,6.9C66.3,336.4,68.6,343.3,68.6,350.3z"/>
	
		<ellipse transform="matrix(3.327795e-02 -0.9994 0.9994 3.327795e-02 -315.303 374.2971)" class="st2" cx="35.8" cy="350.1" rx="18.2" ry="18.2"/>
</g>
</svg>
