<svg xmlns="http://www.w3.org/2000/svg" viewBox="0 0 512 512"><defs><style>.cls-1,.cls-3{fill:#fff;}.cls-1,.cls-2,.cls-3,.cls-4,.cls-5,.cls-6{stroke:#3c3c3b;stroke-linecap:round;stroke-linejoin:round;stroke-width:6px;}.cls-1,.cls-6{fill-rule:evenodd;}.cls-2,.cls-6{fill:#80be70;}.cls-4{fill:none;}.cls-5{fill:#d8dcd7;}</style></defs><g id="Layer_1" data-name="Layer 1"><path class="cls-1" d="M137.62,114.31H417.54a67.83,67.83,0,0,1,67.83,67.83V448.31H73.25a32.79,32.79,0,0,1-32.79-32.79"/><circle class="cls-2" cx="399.57" cy="330.16" r="70.36"/><circle class="cls-3" cx="399.57" cy="329.68" r="52.39"/><circle class="cls-2" cx="192.06" cy="330.16" r="70.36"/><circle class="cls-3" cx="192.06" cy="329.68" r="52.39"/><polygon class="cls-4" points="187.54 329.68 296.58 329.68 248.06 235.94 187.54 329.68"/><polygon class="cls-4" points="296.58 329.68 352.3 235.94 248.06 235.94 296.58 329.68"/><line class="cls-5" x1="399.57" y1="329.68" x2="352.3" y2="235.94"/><circle class="cls-5" cx="296.58" cy="329.68" r="15.05"/><path class="cls-4" d="M347.18,244.55l16.71-27.4a32.92,32.92,0,0,1,24.83-15.62h0a13.69,13.69,0,0,1,15.06,13.62v7.1a13.69,13.69,0,0,1-13.69,13.69h0"/><line class="cls-2" x1="234.22" y1="203.47" x2="248.07" y2="235.94"/><path class="cls-2" d="M220.53,191.32h23.72a13.34,13.34,0,0,1,13.34,13.34v2.16a0,0,0,0,1,0,0H210.86a0,0,0,0,1,0,0V201A9.67,9.67,0,0,1,220.53,191.32Z"/><path class="cls-6" d="M40.46,123.83V101.05a32.79,32.79,0,1,1,65.58,0V415.52a32.79,32.79,0,0,1-65.58,0V154.35"/><line class="cls-2" x1="191.41" y1="172.67" x2="170.11" y2="151.37"/><line class="cls-2" x1="182.54" y1="203.7" x2="152.42" y2="203.7"/><line class="cls-2" x1="219.71" y1="163.28" x2="219.71" y2="133.16"/><path class="cls-1" d="M106,415.52a32.66,32.66,0,0,1-6.46,19.55,33.19,33.19,0,0,1-6.86,6.84A32.79,32.79,0,1,1,106,415.52Z"/><circle class="cls-3" cx="73.25" cy="415.39" r="18.2"/></g></svg>