<svg xmlns="http://www.w3.org/2000/svg" width="39" height="39" viewBox="0 0 39 39"><g transform="translate(-717 -131)"><path d="M19.5,0A19.5,19.5,0,1,1,0,19.5,19.5,19.5,0,0,1,19.5,0Z" transform="translate(717 131)" fill="#80be70"/><g transform="translate(737.412 150.969)"><path d="M.823,136.852H18.268l-2.89-3.258a1.023,1.023,0,0,1,0-1.32.757.757,0,0,1,1.165,0l4.3,4.852h0a1.024,1.024,0,0,1,0,1.321h0l-4.3,4.852a.757.757,0,0,1-1.165,0,1.023,1.023,0,0,1,0-1.32l2.89-3.258H.823a.94.94,0,0,1,0-1.866Z" transform="translate(-11 -138)" fill="#fff"/></g></g></svg>