<svg xmlns="http://www.w3.org/2000/svg" width="26" height="26" viewBox="0 0 26 26"><circle cx="12.787" cy="12.787" r="12.787" transform="translate(0.213 0.213)" fill="#f0f0f0"/><g transform="translate(0.448 2.826)"><path d="M244.87,192.608h13.565a13.014,13.014,0,0,0-.448-3.391H244.87Z" transform="translate(-232.883 -182.434)" fill="#d80027"/><path d="M244.87,59.043h11.657a13.069,13.069,0,0,0-3-3.391H244.87Z" transform="translate(-232.883 -55.652)" fill="#d80027"/><path d="M104.736,459.174a12.944,12.944,0,0,0,8.092-2.826H96.644A12.944,12.944,0,0,0,104.736,459.174Z" transform="translate(-92.184 -436)" fill="#d80027"/><path d="M10.279,326.173H32.463a12.922,12.922,0,0,0,1.46-3.391H8.819A12.922,12.922,0,0,0,10.279,326.173Z" transform="translate(-8.819 -309.217)" fill="#d80027"/></g><path d="M6.022,2.03H7.207l-1.1.8.421,1.3-1.1-.8-1.1.8.364-1.119a13.071,13.071,0,0,0-2.521,2.81h.38l-.7.51q-.164.273-.315.555l.335,1.031-.625-.454Q1,7.953.812,8.468L1.181,9.6H2.543l-1.1.8.421,1.3-1.1-.8-.66.48A13.125,13.125,0,0,0,0,13H13V0A12.938,12.938,0,0,0,6.022,2.03Zm.5,9.67-1.1-.8-1.1.8.421-1.3-1.1-.8H5l.421-1.3.421,1.3H7.207l-1.1.8ZM6.1,6.618l.421,1.3-1.1-.8-1.1.8.421-1.3-1.1-.8H5l.421-1.3.421,1.3H7.207ZM11.189,11.7l-1.1-.8-1.1.8.421-1.3L8.3,9.6H9.666l.421-1.3.421,1.3H11.87l-1.1.8Zm-.421-5.082.421,1.3-1.1-.8-1.1.8.421-1.3-1.1-.8H9.666l.421-1.3.421,1.3H11.87Zm0-3.787.421,1.3-1.1-.8-1.1.8.421-1.3-1.1-.8H9.666l.421-1.3.421,1.3H11.87Z" fill="#0052b4"/></svg>