<svg xmlns="http://www.w3.org/2000/svg" width="16" height="16" viewBox="0 0 16 16"><g transform="translate(-1 -1)"><path d="M16.273,13a.727.727,0,0,0-.727.727v3.064a2.029,2.029,0,0,1-2.027,2.027H4.481a2.029,2.029,0,0,1-2.027-2.027V13.727a.727.727,0,0,0-1.455,0v3.064a3.485,3.485,0,0,0,3.481,3.481h9.037A3.485,3.485,0,0,0,17,16.791V13.727A.727.727,0,0,0,16.273,13Z" transform="translate(0 -3.273)"/><path d="M6.241,6.605,9.364,3.483v9.153a.727.727,0,0,0,1.455,0V3.483L13.94,6.605a.727.727,0,1,0,1.028-1.028L10.605,1.213a.727.727,0,0,0-1.028,0L5.213,5.577A.727.727,0,1,0,6.242,6.605Z" transform="translate(-1.091)"/></g></svg>